<?xml version="1.0" encoding="utf-8"?>
<!-- Generator: Adobe Illustrator 16.0.0, SVG Export Plug-In . SVG Version: 6.00 Build 0)  -->
<!DOCTYPE svg PUBLIC "-//W3C//DTD SVG 1.1//EN" "http://www.w3.org/Graphics/SVG/1.1/DTD/svg11.dtd">
<svg version="1.1" id="Layer_1" xmlns="http://www.w3.org/2000/svg" xmlns:xlink="http://www.w3.org/1999/xlink" x="0px" y="0px"
	 width="51.35px" height="57.845px" viewBox="0 0 51.35 57.845" enable-background="new 0 0 51.35 57.845" xml:space="preserve">
<g id="ivvMLK.tif">
	<g>
		<g>
			<path fill="#4C6FA9" d="M0.592,46.838c0-14.895,0.062-44.593,0.067-44.656C0.592,0.312,1.097,0,3.294,0
				c14.913,0,44.851-0.006,44.913,0c1.885,0.188,2.385-0.064,2.385,2.133c0,14.916,0,29.832,0,44.748
				c0,2.023-0.356,2.694-2.578,2.815c-3.992,0-7.914,0.002-11.906,0c-1.089,0-1.146-0.237-1.15-1.364
				c-0.016-4.604-0.008-9.207,0-13.811c0.002-1.219-0.208-2.428-0.025-3.658c0.092-0.623,0.279-0.863,0.91-0.979
				c1.18-0.215,2.37-0.199,3.554-0.309c0.45-0.041,0.903-0.045,1.3-0.295c0.384-0.242,0.553-0.611,0.622-1.043
				c0.193-1.208,0.374-2.418,0.485-3.637c0.089-0.974-0.242-1.373-1.242-1.418c-1.48-0.067-2.963-0.001-4.444-0.03
				c-1.254-0.024-1.54-0.291-1.533-1.561c0.009-1.606-0.11-3.216,0.148-4.82c0.308-1.895,1.431-2.965,3.367-3.073
				c0.899-0.05,1.804,0.016,2.705-0.03c1.085-0.055,1.438-0.398,1.484-1.48c0.043-0.997,0.057-1.998-0.009-2.994
				c-0.062-0.951-0.437-1.417-1.354-1.446c-2.119-0.068-4.251-0.284-6.356,0.147c-3.153,0.646-5.218,2.533-6.184,5.596
				c-0.51,1.612-0.616,3.282-0.591,4.967c0.021,1.191,0.003,2.383-0.001,3.575c-0.002,0.76-0.334,1.118-1.105,1.121
				c-1.191,0.005-2.384-0.018-3.574,0.014c-1.312,0.034-1.657,0.376-1.688,1.684c-0.024,1.029-0.018,2.062-0.001,3.092
				c0.009,0.524,0.058,1.039,0.564,1.358c1.037,0.465,2.158,0.328,3.235,0.426c2.377,0.213,2.382,0.166,2.382,2.539
				c-0.001,5.314,0.003,10.633-0.007,15.947c-0.001,0.4,0.084,1.451-0.227,1.475s-15.815-0.008-23.191,0
				C3.837,49.688,0.592,49.17,0.592,46.838z"/>
		</g>
	</g>
</g>
</svg>
