<?xml version="1.0" encoding="utf-8"?>
<!-- Generator: Adobe Illustrator 16.0.0, SVG Export Plug-In . SVG Version: 6.00 Build 0)  -->
<!DOCTYPE svg PUBLIC "-//W3C//DTD SVG 1.1//EN" "http://www.w3.org/Graphics/SVG/1.1/DTD/svg11.dtd">
<svg version="1.1" id="Layer_1" xmlns="http://www.w3.org/2000/svg" xmlns:xlink="http://www.w3.org/1999/xlink" x="0px" y="0px"
	 width="51.35px" height="57.845px" viewBox="0 0 51.35 57.845" enable-background="new 0 0 51.35 57.845" xml:space="preserve">
<g>
	<g>
		<path d="M41.09,50c-2.559,0-4.498-2.083-4.498-4.644V30h-7v15.358c0,2.559-2.441,4.642-5.001,4.642
			c-2.561,0-4.999-2.082-4.999-4.642V30h-11.2c-2.559,0-4.8-1.632-4.8-4.192V5.626c0-2.56,1.939-4.643,4.498-4.643
			c2.561,0,4.502,2.083,4.502,4.643V21h7V5.61c0-2.56,2.438-4.643,4.999-4.643c2.562,0,5.001,2.083,5.001,4.643V21h7V5.61
			c0-2.56,2.137-4.643,4.697-4.643c2.475,0,4.341,1.936,4.467,4.407c0.004,0.084,0,39.981,0,39.981C45.756,47.917,43.65,50,41.09,50
			z M27.592,28h11v17.356c0,1.421,1.078,2.58,2.5,2.58c1.423,0,2.66-1.159,2.66-2.58c0,0,0.002-39.826,0-39.874
			c-0.068-1.376-1.203-2.452-2.579-2.452c-1.422,0-2.581,1.157-2.581,2.58V23h-11V5.61c0-1.422-1.578-2.58-3.002-2.58
			c-1.42,0-2.998,1.157-2.998,2.58V23h-11V5.626c0-1.422-1.078-2.579-2.502-2.579c-1.42,0-2.498,1.157-2.498,2.579v20.182
			c0,1.422,1.379,2.192,2.8,2.192h13.2v17.356c0,1.421,1.578,2.58,2.998,2.58c1.424,0,3.002-1.159,3.002-2.58V28z"/>
	</g>
</g>
</svg>
