<?xml version="1.0" encoding="utf-8"?>
<!-- Generator: Adobe Illustrator 16.0.0, SVG Export Plug-In . SVG Version: 6.00 Build 0)  -->
<!DOCTYPE svg PUBLIC "-//W3C//DTD SVG 1.1//EN" "http://www.w3.org/Graphics/SVG/1.1/DTD/svg11.dtd">
<svg version="1.1" id="Layer_1" xmlns="http://www.w3.org/2000/svg" xmlns:xlink="http://www.w3.org/1999/xlink" x="0px" y="0px"
	 width="51.35px" height="62.471px" viewBox="0 0 51.35 62.471" enable-background="new 0 0 51.35 62.471" xml:space="preserve">
<g id="jYO5fs.tif_3_">
	<g>
		<path fill="#4686C6" d="M0.092,24.145c0-6.046,0-12.092,0-18.138c0-0.829,0.197-1.669,0.693-2.402
			C1.471,2.59,2.283,1.893,3.346,1.269C3.881,0.956,4.459,0.97,5.027,0.97c13.73,0,27.461,0,41.194,0
			c2.434,0,3.819,1.678,4.763,3.758c0.286,0.632,0.301,1.26,0.301,1.938c0.01,13.029-0.01,26.022,0.021,39.052
			c0.006,3.001-2.05,5.085-4,5.901c-0.539,0.225-1.138,0.352-1.699,0.352c-13.357,0-26.713,0-40.067,0
			c-1.154,0-2.208-0.521-3.12-1.272c-1.334-1.102-2.254-2.435-2.32-4.243c0-0.053-0.008-0.137-0.008-0.176
			c0-7.311,0-14.619,0-21.929C0.092,24.281,0.092,24.213,0.092,24.145z"/>
		<path fill-rule="evenodd" clip-rule="evenodd" fill="#87B9E3" d="M0.006,24.145c0.105,0.032,0.24,0.011,0.283,0.156
			C0.193,24.317,0.1,24.333,0.006,24.35C0.006,24.281,0.006,24.213,0.006,24.145z"/>
		<path fill-rule="evenodd" clip-rule="evenodd" fill="#FCFDFF" d="M25.514,24.275c-1.557,0.134-3.035,0.157-4.498-0.183
			c-5.67-1.321-8.776-7.104-6.714-12.621c1.532-4.102,4.646-6.42,8.819-7.403c1.965-0.463,3.973-0.604,5.994-0.595
			c3.638,0.016,7.274,0.003,10.912,0.008c0.178,0,0.367-0.056,0.602,0.085c-0.951,0.542-1.881,1.035-2.77,1.592
			c-0.662,0.414-1.34,0.604-2.124,0.553C34.942,5.66,34.143,5.7,33.248,5.7c0.662,0.669,1.34,1.185,1.869,1.851
			c2.277,2.865,2.91,6.039,1.762,9.523c-0.574,1.744-1.789,3.042-3.16,4.204c-0.846,0.716-1.738,1.372-2.436,2.255
			c-0.893,1.13-0.842,2.595,0.154,3.619c1.006,1.033,2.244,1.783,3.312,2.738c0.955,0.852,1.958,1.654,2.771,2.653
			c2.461,3.021,2.611,7.192,0.385,10.595c-1.464,2.236-3.538,3.711-5.964,4.736c-3.149,1.33-6.44,1.695-9.825,1.507
			c-2.398-0.134-4.703-0.612-6.846-1.726c-2.127-1.104-3.82-2.656-4.379-5.068c-0.748-3.234,0.36-5.929,2.815-8.059
			c2.098-1.818,4.664-2.648,7.331-3.207c1.691-0.354,3.402-0.543,5.125-0.633c0.152-0.007,0.35,0.037,0.422-0.112
			c0.076-0.155-0.104-0.269-0.186-0.391c-0.256-0.384-0.535-0.753-0.773-1.146c-0.74-1.226-0.85-2.531-0.43-3.888
			C25.281,24.877,25.393,24.61,25.514,24.275z"/>
		<path fill-rule="evenodd" clip-rule="evenodd" fill="#4686C6" d="M35.381,40.4c-0.051,2.588-1.367,4.35-3.627,5.479
			c-0.986,0.494-2.053,0.744-3.145,0.857c-2.678,0.28-5.32,0.143-7.85-0.876c-1.635-0.657-3.061-1.632-3.943-3.198
			c-1.627-2.886-1.068-6.574,2.622-8.572c1.989-1.078,4.171-1.465,6.396-1.64c0.799-0.062,1.602-0.065,2.402-0.09
			c0.275-0.009,0.551,0.022,0.782,0.192c1.446,1.057,2.952,2.043,4.239,3.298C34.529,37.087,35.445,38.517,35.381,40.4z"/>
		<path fill-rule="evenodd" clip-rule="evenodd" fill="#4686C6" d="M32.086,16.656c-0.077,1.271-0.168,2.708-1.144,3.924
			c-1.886,2.35-5.593,2.754-7.903,0.842c-2.012-1.666-3.061-3.886-3.645-6.362c-0.414-1.757-0.541-3.526-0.15-5.317
			C20.111,5.76,25.02,4.157,28.08,6.87c1.943,1.722,2.977,3.951,3.582,6.417C31.918,14.332,32.074,15.394,32.086,16.656z"/>
	</g>
</g>
</svg>
