<?xml version="1.0" encoding="utf-8"?>
<!-- Generator: Adobe Illustrator 16.0.0, SVG Export Plug-In . SVG Version: 6.00 Build 0)  -->
<!DOCTYPE svg PUBLIC "-//W3C//DTD SVG 1.1//EN" "http://www.w3.org/Graphics/SVG/1.1/DTD/svg11.dtd">
<svg version="1.1" id="Layer_1" xmlns="http://www.w3.org/2000/svg" xmlns:xlink="http://www.w3.org/1999/xlink" x="0px" y="0px"
	 width="51.35px" height="75.657px" viewBox="0 0 51.35 75.657" enable-background="new 0 0 51.35 75.657" xml:space="preserve">
<g id="BTI0Rg.tif_2_">
	<g>
		<path fill-rule="evenodd" clip-rule="evenodd" fill="#010101" d="M42.821,0c2.192,0.312,3.063,1.32,3.644,3.129
			c0.793,2.472-0.557,5.243-2.969,5.919c-2.633,0.739-5.307-0.751-5.773-3.4c-0.143-0.816-0.467-1.021-1.17-1.173
			c-2.006-0.433-4.01-0.876-5.992-1.413c-0.682-0.185-0.922,0.037-1.098,0.609c-0.793,2.567-1.578,5.139-2.402,7.695
			c-0.184,0.562-0.119,0.75,0.506,0.783c4.555,0.246,8.85,1.405,12.764,3.796c0.484,0.296,0.703-0.023,1.006-0.215
			c2.674-1.693,5.857-1.141,7.631,1.327c1.754,2.441,1.324,5.609-1.072,7.57c-0.475,0.387-0.713,0.732-0.658,1.381
			c0.268,3.23-0.955,5.934-3.084,8.282c-2.115,2.333-4.77,3.866-7.744,5.093c2.791,1.549,4.396,3.875,5.061,6.842
			c0.646,2.912,0.23,5.707-1.254,8.311c-0.822,1.443-1.885,2.787-3.447,3.34c-1.617,0.57-2.205,1.701-2.547,3.258
			c0.998,0.154,2.045,0.227,3.014,0.607c2.555,1.002,3.969,3.512,3.291,5.783c-0.09,0.307-0.193,0.557-0.516,0.662
			c-3.459-0.04-29.959-0.066-29.959-0.066c-0.667-1.537,1.061-5.745,3.43-6.733c0.436-0.184,0.91-0.198,1.348-0.364
			c0.438-0.164,1.203,0.087,1.215-0.626c0.01-0.684-0.275-1.336-0.982-1.672c-0.502-0.24-0.99-0.501-1.465-0.794
			c-2.955-1.824-4.248-4.656-4.582-7.938c-0.434-4.275,1.014-7.832,4.623-10.486c-0.574-0.525-1.268-0.745-1.893-1.067
			c-2.434-1.256-4.535-2.901-6.182-5.117c-1.482-1.995-2.289-4.206-2.248-6.695c0.016-0.863-0.144-1.57-0.831-2.173
			c-0.793-0.698-1.392-1.687-1.392-2.683c0-1.031,0-2.062,0-3.093c1-3.882,4.565-5.183,8.419-3.484
			c0.664,0.294,1.196,0.247,1.813-0.077c3.656-1.924,7.518-3.119,11.672-3.253c1.229-0.04,1.869-0.575,2.24-1.826
			c0.783-2.629,1.562-5.265,2.491-7.851c0.545-1.519,0.937-1.716,2.505-1.385c2.059,0.434,4.094,0.959,6.135,1.466
			c0.836,0.208,1.508-0.057,2.041-0.794C39.105,0.503,41.967,0,42.821,0z"/>
		<path fill-rule="evenodd" clip-rule="evenodd" fill="#FFFFFF" d="M25.072,39.525c-5.219-0.154-10.539-1.245-15.076-4.741
			c-2.545-1.963-4.457-4.389-4.555-7.832c-0.102-3.66,1.836-6.234,4.516-8.355c3.35-2.647,7.287-3.937,11.447-4.475
			c5.729-0.742,11.287-0.047,16.516,2.553c2.094,1.041,3.945,2.424,5.42,4.262c2.883,3.596,2.877,7.99-0.059,11.545
			c-2.887,3.498-6.809,5.219-11.086,6.256C29.982,39.273,27.723,39.505,25.072,39.525z"/>
		<path fill-rule="evenodd" clip-rule="evenodd" fill="#FFFFFF" d="M34.502,40.086c0.676,3.655,0.676,7.327,0.271,10.997
			c-0.418,3.795-1.281,7.484-3.072,10.898c-0.355,0.68-0.766,1.336-1.213,1.959c-1.814,2.545-4.295,3.422-7.285,2.586
			c-0.592-0.166-1.021-0.613-1.449-1.031c-2.504-2.453-3.744-5.59-4.602-8.873c-1.359-5.193-1.609-10.471-0.893-15.795
			c0.061-0.455,0.006-0.813,0.699-0.697C26.441,41.717,26.441,41.71,34.502,40.086z"/>
		<path fill-rule="evenodd" clip-rule="evenodd" fill="#FCFDFF" d="M35.689,56.45c1.09-4.895,1.436-9.668,0.873-14.829
			c2.531,2.147,3.479,4.657,3.348,7.532C39.771,52.196,38.598,54.753,35.689,56.45z"/>
		<path fill-rule="evenodd" clip-rule="evenodd" fill="#FCFDFF" d="M14.26,41.872c-0.312,4.922-0.227,9.656,0.916,14.361
			C10.24,54.151,9.637,45.411,14.26,41.872z"/>
		<path fill-rule="evenodd" clip-rule="evenodd" fill="#FCFDFF" d="M44.881,4.799c-0.023,1.457-1.287,2.732-2.711,2.733
			c-1.488,0-2.719-1.286-2.701-2.825c0.014-1.47,1.238-2.718,2.674-2.728C43.619,1.967,44.902,3.289,44.881,4.799z"/>
		<path fill-rule="evenodd" clip-rule="evenodd" fill="#F9F9F9" d="M30.77,66.577c0.846-1.098,1.57-1.936,2.084-2.916
			c0.059-0.113,0.123-0.264,0.223-0.307c1.223-0.529,2.422-0.32,3.6,0.162c1.133,0.465,1.908,1.264,2.205,2.473
			c0.115,0.457-0.121,0.596-0.555,0.594C35.902,66.573,33.477,66.577,30.77,66.577z"/>
		<path fill-rule="evenodd" clip-rule="evenodd" fill="#FAFBFB" d="M20.084,66.571c-2.627,0-5.01-0.014-7.395,0.01
			c-0.584,0.006-0.654-0.285-0.539-0.721c0.438-1.67,1.721-2.367,3.256-2.686c1.205-0.252,2.361-0.324,3.041,1.115
			C18.801,65.044,19.424,65.671,20.084,66.571z"/>
		<path fill-rule="evenodd" clip-rule="evenodd" fill="#FAFBFB" d="M46.742,23.228c-0.939-2.404-2.473-4.255-4.346-5.85
			c1.586-1.209,3.576-0.998,4.869,0.475C48.652,19.435,48.506,21.455,46.742,23.228z"/>
		<path fill-rule="evenodd" clip-rule="evenodd" fill="#FAFBFB" d="M4.256,23.072c-1.59-1.547-1.777-3.474-0.588-5.011
			c1.207-1.561,3.107-1.903,4.965-0.819C6.76,18.848,5.174,20.649,4.256,23.072z"/>
		<path fill-rule="evenodd" clip-rule="evenodd" fill="#F05F22" d="M32.996,20.671c1.838-0.004,3.318,1.508,3.307,3.381
			c-0.008,1.771-1.523,3.309-3.277,3.33c-1.844,0.023-3.383-1.467-3.414-3.303C29.582,22.131,31.025,20.677,32.996,20.671z"/>
		<path fill-rule="evenodd" clip-rule="evenodd" fill="#020202" d="M25.895,36.077c-2.557-0.021-4.639-0.209-6.541-1.218
			c-0.523-0.276-1.002-0.648-1.469-1.017c-0.514-0.402-0.619-0.957-0.211-1.454c0.4-0.487,0.898-0.312,1.369,0.012
			c3.68,2.523,9.467,2.534,12.979,0.02c0.52-0.373,1.068-0.525,1.467,0.024c0.365,0.508,0.162,1.049-0.324,1.467
			c-1.447,1.24-3.188,1.774-5.025,2.029C27.252,36.064,26.344,36.053,25.895,36.077z"/>
		<path fill-rule="evenodd" clip-rule="evenodd" fill="#F05E22" d="M15.961,26.433c-0.225-0.105-0.422-0.239-0.477-0.506
			c-0.07-0.379-0.211-0.737-0.328-1.104c-0.385-1.186-0.137-2.212,0.873-2.977c0.32-0.242,0.572-0.507,0.75-0.854l0.004,0.003
			c0.377-0.062,0.77-0.054,1.135-0.135c1.621-0.358,2.273,0.776,2.922,1.874c0.568,0.961,0.359,1.98-0.074,2.905
			c-0.508,1.081-2.215,1.695-3.367,1.304C16.916,26.782,16.398,26.72,15.961,26.433z"/>
		<path fill-rule="evenodd" clip-rule="evenodd" fill="#EE5E23" d="M15.961,26.433c1.131-0.038,2.184,0.621,3.414,0.068
			c1.346-0.604,1.875-2.414,1.203-3.717c-0.877-1.693-2.168-1.969-3.795-1.788c1.777-0.756,3.303-0.295,4.277,1.29
			c0.834,1.361,0.52,3.252-0.711,4.289C19.037,27.681,17.354,27.626,15.961,26.433z"/>
		<path fill-rule="evenodd" clip-rule="evenodd" fill="#EA5F28" d="M16.779,20.993c-0.031,0.359,0.154,0.802-0.326,1.003
			c-1.545,0.649-1.389,1.835-0.961,3.083c0.105,0.307,0.15,0.566-0.008,0.848C14.205,23.939,14.682,22.134,16.779,20.993z"/>
	</g>
</g>
</svg>
