<?xml version="1.0" encoding="utf-8"?>
<!-- Generator: Adobe Illustrator 16.0.0, SVG Export Plug-In . SVG Version: 6.00 Build 0)  -->
<!DOCTYPE svg PUBLIC "-//W3C//DTD SVG 1.1//EN" "http://www.w3.org/Graphics/SVG/1.1/DTD/svg11.dtd">
<svg version="1.1" id="Layer_1" xmlns="http://www.w3.org/2000/svg" xmlns:xlink="http://www.w3.org/1999/xlink" x="0px" y="0px"
	 width="51.35px" height="51.14px" viewBox="0 0 51.35 51.14" enable-background="new 0 0 51.35 51.14" xml:space="preserve">
<g id="_x37_Lpb8i.tif_1_">
	<g>
		<path fill="#70B7E3" d="M35.154,3.295c3.688,0,4.979,1.166,6.582,2.664c0.574,0.536,1.4,0.064,2.092-0.127
			c0.914-0.253,1.817-0.596,2.68-0.998c0.59-0.273,1.215-0.443,1.699,0.103c0.48,0.543,0.239,1.17-0.037,1.721
			c-0.373,0.749-0.861,1.429-1.441,2.029c0.02,0.123,0.088,0.096,0.234,0.065c0.785-0.162,1.738-0.85,2.324-0.001
			c0.597,0.866-0.12,1.842-0.748,2.353c-2.445,1.993-3.172,4.43-3.505,7.6c-0.854,8.115-4.81,14.775-11.345,19.751
			c-3.672,2.796-7.986,4.755-12.682,4.841c-0.27,0.005-5.984,0-8.666,0c-4.5,0.002-7.803-1.882-9.385-2.685
			c-0.619-0.312-1.336-0.856-1.057-1.717c0.248-0.759,1.037-0.774,1.711-0.772c3.256,0.01,6.285-0.832,9.137-2.371
			c0.146-0.08,0.287-0.172,0.416-0.28c0.092-0.078,0.133-0.173,0.113-0.403c-1.715-0.762-3.494-1.537-4.869-2.981
			c-0.666-0.699-1.219-1.45-1.611-2.326c-0.619-1.382-0.57-1.648,0.584-2.828c-1.977-1.733-3.846-3.542-4.52-6.24
			c-0.517-2.072-0.205-2.742,1.852-3.273c-1.297-2.255-2.348-4.565-2.158-7.257C2.617,9.257,2.778,8.382,3.051,7.54
			c0.648-1.999,2-2.342,3.483-0.854c1.461,1.468,2.948,2.881,4.688,4.024c3.459,2.273,7.203,3.744,11.314,4.332
			c1.168,0.167,1.539-0.203,1.493-1.291c-0.081-1.969,0.628-3.551,1.566-5.224C27.172,5.721,30.092,3.295,35.154,3.295z"/>
	</g>
</g>
</svg>
