<svg xmlns="http://www.w3.org/2000/svg" xmlns:xlink="http://www.w3.org/1999/xlink" version="1.1" x="0px" y="0px" viewBox="0 0 100 100" enable-background="new 0 0 100 100" xml:space="preserve"><g display="none"><g display="inline"><path d="M46.121,84.231c-0.881,0.991-1.383,2.242-1.383,3.58c0,2.985,2.427,5.414,5.414,5.414s5.414-2.429,5.414-5.414    c0-1.335-0.652-2.61-1.529-3.596L54,72h6.271L64,68.749v-1.278L60.271,64h-3.957l-0.016-49.365L50.141,4.064l-6.155,10.604    L43.994,64H40.03L36,67.471v1.278L40.03,72H46L46.121,84.231z M54.234,64H51V9.901l3.124,5.299L54.234,64z M46.011,15.201    L49,9.875V64h-2.926L46.011,15.201z M52,76.366c0,0.16-0.907,0.377-1.965,0.377c-1.18,0-2.035-0.268-2.035-0.428v-1.3    c1,0.172,1.265,0.27,2.035,0.27c0.782,0,1.965-0.092,1.965-0.249V76.366z M52,79.935c0,0.16-0.907,0.375-1.965,0.375    c-1.18,0-2.035-0.266-2.035-0.426v-1.33c1,0.172,1.265,0.27,2.035,0.27c0.782,0,1.965-0.093,1.965-0.249V79.935z M48.07,76.344    c0.018,0.036,0.035,0.083,0.035,0.147H48.07V76.344z M48.07,79.911c0.018,0.036,0.035,0.083,0.035,0.146H48.07V79.911z M48,82.121    c1,0.172,1.265,0.269,2.035,0.269c0.782,0,1.965-0.092,1.965-0.249v1.321c0,0.16-0.896,0.396-2,0.396c-1.104,0-2-0.236-2-0.396    V82.121z M48.07,72.952v-0.146c0.018,0.036,0.035,0.083,0.035,0.146H48.07z M50.15,91.146c-1.839,0-3.334-1.496-3.334-3.334    c0-0.839,0.316-1.622,0.877-2.237c0.659,0.236,1.488,0.364,2.457,0.364c0.965,0,1.792-0.127,2.45-0.361    c0.558,0.611,0.885,1.397,0.885,2.234C53.484,89.649,51.988,91.146,50.15,91.146z M52,72.829c0,0.16-0.907,0.375-1.965,0.375    c-1.18,0-2.035-0.266-2.035-0.426V72h4V72.829z M59.41,70H40.891l-2.288-2l2.288-2H59.41l2.287,2L59.41,70z"></path><path d="M50.15,86.585c-1.004,0-1.82,0.816-1.82,1.819c0,1.004,0.816,1.819,1.82,1.819c1.004,0,1.821-0.815,1.821-1.819    C51.971,87.401,51.154,86.585,50.15,86.585z M50.15,88.769c-0.201,0-0.363-0.164-0.363-0.364s0.162-0.364,0.363-0.364    c0.202,0,0.364,0.164,0.364,0.364S50.352,88.769,50.15,88.769z"></path></g></g><g display="none"><g display="inline"><path d="M50.054,30.861c-10.139,0-18.389,8.249-18.389,18.389c0,10.139,8.25,18.389,18.389,18.389    c10.14,0,18.39-8.25,18.39-18.389C68.443,39.11,60.193,30.861,50.054,30.861z M50.054,64.627c-8.478,0-15.376-6.898-15.376-15.377    s6.898-15.376,15.376-15.376c8.479,0,15.376,6.897,15.376,15.376S58.532,64.627,50.054,64.627z"></path><path d="M39.097,73.08c-2.383,0-4.321,1.938-4.321,4.32s1.938,4.32,4.321,4.32c2.382,0,4.32-1.938,4.32-4.32    S41.479,73.08,39.097,73.08z M39.097,78.707c-0.722,0-1.308-0.586-1.308-1.307c0-0.723,0.586-1.309,1.308-1.309    c0.721,0,1.308,0.586,1.308,1.309C40.404,78.121,39.817,78.707,39.097,78.707z"></path><path d="M50.075,24.095c-13.871,0-25.156,11.285-25.156,25.156c0,13.871,11.285,25.156,25.156,25.156S75.231,63.121,75.231,49.25    C75.231,35.379,63.946,24.095,50.075,24.095z M50.075,71.395c-12.21,0-22.144-9.934-22.144-22.144    c0-12.209,9.934-22.143,22.144-22.143s22.144,9.934,22.144,22.143C72.219,61.461,62.285,71.395,50.075,71.395z"></path><path d="M69.903,30.821c2.383,0,4.321-1.938,4.321-4.321s-1.938-4.321-4.321-4.321c-2.382,0-4.32,1.938-4.32,4.321    S67.521,30.821,69.903,30.821z M69.903,25.192c0.722,0,1.309,0.587,1.309,1.308s-0.587,1.308-1.309,1.308    c-0.721,0-1.308-0.587-1.308-1.308S69.183,25.192,69.903,25.192z"></path><path d="M20.386,48.065c2.382,0,4.32-1.938,4.32-4.321c0-2.382-1.938-4.32-4.32-4.32c-2.383,0-4.321,1.938-4.321,4.32    C16.064,46.127,18.003,48.065,20.386,48.065z M20.386,42.437c0.721,0,1.308,0.586,1.308,1.308s-0.587,1.308-1.308,1.308    c-0.722,0-1.309-0.587-1.309-1.308S19.664,42.437,20.386,42.437z"></path><path d="M79.87,49.279c-2.383,0-4.321,1.938-4.321,4.321c0,2.381,1.938,4.32,4.321,4.32c2.382,0,4.32-1.939,4.32-4.32    C84.19,51.217,82.252,49.279,79.87,49.279z M79.87,54.906c-0.722,0-1.308-0.586-1.308-1.307c0-0.723,0.586-1.309,1.308-1.309    s1.308,0.586,1.308,1.309C81.178,54.32,80.592,54.906,79.87,54.906z"></path><path d="M77.101,22.203C69.877,14.979,60.271,11,50.054,11c-10.217,0-19.823,3.979-27.047,11.203    c-7.224,7.225-11.203,16.83-11.203,27.046c0,10.217,3.979,19.823,11.203,27.047C30.231,83.521,39.837,87.5,50.054,87.5    s19.823-3.979,27.046-11.203c7.225-7.225,11.203-16.83,11.203-27.047C88.304,39.033,84.325,29.428,77.101,22.203z M74.971,74.166    c-6.655,6.656-15.504,10.322-24.917,10.322s-18.261-3.666-24.917-10.322c-6.655-6.654-10.321-15.504-10.321-24.917    c0-9.412,3.666-18.261,10.321-24.916c6.656-6.655,15.505-10.321,24.917-10.321c9.413,0,18.261,3.666,24.917,10.321    s10.32,15.504,10.32,24.916C85.291,58.662,81.626,67.512,74.971,74.166z"></path><path d="M75.549,43.905c0,2.382,1.938,4.321,4.321,4.321c2.382,0,4.32-1.938,4.32-4.321s-1.938-4.321-4.32-4.321    C77.487,39.584,75.549,41.523,75.549,43.905z M81.178,43.905c0,0.721-0.586,1.308-1.308,1.308s-1.308-0.587-1.308-1.308    s0.586-1.308,1.308-1.308S81.178,43.184,81.178,43.905z"></path><path d="M72.271,34.879c0,2.382,1.938,4.321,4.321,4.321c2.382,0,4.32-1.938,4.32-4.321s-1.938-4.321-4.32-4.321    C74.21,30.558,72.271,32.497,72.271,34.879z M76.593,33.571c0.721,0,1.308,0.587,1.308,1.308s-0.587,1.308-1.308,1.308    c-0.722,0-1.309-0.587-1.309-1.308S75.871,33.571,76.593,33.571z"></path><path d="M27.854,63.723c0-2.383-1.938-4.32-4.321-4.32s-4.321,1.938-4.321,4.32s1.938,4.32,4.321,4.32    S27.854,66.105,27.854,63.723z M23.534,65.029c-0.721,0-1.308-0.586-1.308-1.307c0-0.723,0.587-1.309,1.308-1.309    s1.308,0.586,1.308,1.309C24.842,64.443,24.255,65.029,23.534,65.029z"></path><path d="M76.593,59.402c-2.383,0-4.321,1.938-4.321,4.32s1.938,4.32,4.321,4.32c2.382,0,4.32-1.938,4.32-4.32    S78.975,59.402,76.593,59.402z M76.593,65.029c-0.722,0-1.309-0.586-1.309-1.307c0-0.723,0.587-1.309,1.309-1.309    c0.721,0,1.308,0.586,1.308,1.309C77.9,64.443,77.313,65.029,76.593,65.029z"></path><path d="M30.223,30.821c2.382,0,4.321-1.938,4.321-4.321s-1.938-4.321-4.321-4.321s-4.321,1.938-4.321,4.321    S27.84,30.821,30.223,30.821z M30.223,25.192c0.721,0,1.308,0.587,1.308,1.308s-0.587,1.308-1.308,1.308s-1.308-0.587-1.308-1.308    S29.501,25.192,30.223,25.192z"></path><path d="M61.029,73.08c-2.382,0-4.32,1.938-4.32,4.32s1.938,4.32,4.32,4.32c2.383,0,4.321-1.938,4.321-4.32    S63.412,73.08,61.029,73.08z M61.029,78.707c-0.721,0-1.308-0.586-1.308-1.307c0-0.723,0.587-1.309,1.308-1.309    c0.722,0,1.309,0.586,1.309,1.309C62.338,78.121,61.751,78.707,61.029,78.707z"></path><path d="M23.534,39.2c2.382,0,4.321-1.938,4.321-4.321s-1.938-4.321-4.321-4.321s-4.321,1.938-4.321,4.321    S21.151,39.2,23.534,39.2z M23.534,33.571c0.721,0,1.308,0.587,1.308,1.308s-0.587,1.308-1.308,1.308s-1.308-0.587-1.308-1.308    S22.812,33.571,23.534,33.571z"></path><path d="M61.029,25.522c2.383,0,4.321-1.938,4.321-4.321s-1.938-4.321-4.321-4.321c-2.382,0-4.32,1.938-4.32,4.321    S58.647,25.522,61.029,25.522z M61.029,19.893c0.722,0,1.309,0.587,1.309,1.308s-0.587,1.308-1.309,1.308    c-0.721,0-1.308-0.587-1.308-1.308S60.309,19.893,61.029,19.893z"></path><path d="M50.027,75.162c-2.383,0-4.321,1.938-4.321,4.32s1.938,4.32,4.321,4.32c2.382,0,4.32-1.938,4.32-4.32    S52.409,75.162,50.027,75.162z M50.027,80.791c-0.722,0-1.308-0.588-1.308-1.309s0.586-1.309,1.308-1.309    c0.721,0,1.308,0.588,1.308,1.309S50.748,80.791,50.027,80.791z"></path><path d="M30.223,67.779c-2.382,0-4.321,1.939-4.321,4.32c0,2.383,1.938,4.322,4.321,4.322s4.321-1.939,4.321-4.322    C34.543,69.719,32.605,67.779,30.223,67.779z M30.223,73.408c-0.721,0-1.308-0.586-1.308-1.309c0-0.721,0.587-1.307,1.308-1.307    s1.308,0.586,1.308,1.307C31.531,72.822,30.944,73.408,30.223,73.408z"></path><path d="M50.027,23.439c2.382,0,4.32-1.938,4.32-4.321c0-2.382-1.938-4.32-4.32-4.32c-2.383,0-4.321,1.938-4.321,4.32    C45.707,21.501,47.645,23.439,50.027,23.439z M50.027,17.811c0.721,0,1.308,0.586,1.308,1.308s-0.587,1.308-1.308,1.308    c-0.722,0-1.308-0.587-1.308-1.308S49.306,17.811,50.027,17.811z"></path><path d="M24.577,53.6c0-2.383-1.938-4.321-4.321-4.321s-4.321,1.938-4.321,4.321c0,2.381,1.938,4.32,4.321,4.32    S24.577,55.98,24.577,53.6z M18.948,53.6c0-0.723,0.587-1.309,1.308-1.309s1.308,0.586,1.308,1.309    c0,0.721-0.587,1.307-1.308,1.307S18.948,54.32,18.948,53.6z"></path><path d="M39.097,25.522c2.382,0,4.32-1.938,4.32-4.321s-1.938-4.321-4.32-4.321c-2.383,0-4.321,1.938-4.321,4.321    S36.714,25.522,39.097,25.522z M39.097,19.893c0.721,0,1.308,0.587,1.308,1.308s-0.587,1.308-1.308,1.308    c-0.722,0-1.308-0.587-1.308-1.308S38.375,19.893,39.097,19.893z"></path><path d="M69.903,67.779c-2.382,0-4.32,1.939-4.32,4.32c0,2.383,1.938,4.322,4.32,4.322c2.383,0,4.321-1.939,4.321-4.322    C74.225,69.719,72.286,67.779,69.903,67.779z M69.903,73.408c-0.721,0-1.308-0.586-1.308-1.309c0-0.721,0.587-1.307,1.308-1.307    c0.722,0,1.309,0.586,1.309,1.307C71.212,72.822,70.625,73.408,69.903,73.408z"></path></g></g><g display="none"><path display="inline" d="M89,56.521v-6.89c0-11.287-3.213-20.745-9.41-27.333C73.257,15.567,64.102,12,52.991,12h-5.176   c-11.11,0-20.169,3.567-26.501,10.299C15.115,28.887,12,38.345,12,49.632v7.329c-2,2.813-3.474,6.902-3.474,11.39   C8.526,78.143,14.063,85,22.545,85h1.263c1.099,0,2.201,0.938,3.639,0.938c3.741,0,6.554-3.322,6.554-7.062v-22.52   c0-3.741-2.812-6.635-6.554-6.635c-1.939,0-3.46,0.28-4.697,2.28h-0.204C21.895,52,21,51.744,21,51.82v-4.876   c0-7.771,2.798-14.371,8.424-19.085c5.365-4.495,12.79-6.97,21.067-6.97c8.277,0,15.667,2.475,21.032,6.97   C77.15,32.573,80,39.173,80,46.944v4.833C80,51.727,79.134,52,78.604,52h-0.203c-1.238-2-2.833-2.28-4.773-2.28   c-3.741,0-6.628,2.894-6.628,6.635v22.52c0,3.74,2.887,7.062,6.628,7.062c1.438,0,2.616-0.938,3.715-0.938h1.262   c8.481,0,14.117-6.857,14.117-16.649C92.722,63.625,91,59.371,89,56.521z M24,56.355c0-1.796,1.704-3.257,3.5-3.257   S31,54.56,31,56.355v22.52c0,1.795-1.704,3.256-3.5,3.256S24,80.67,24,78.875V56.355z M21.238,80.84   c-6.827-0.753-9.319-7.199-9.319-12.768c0-5.512,2.455-11.88,9.119-12.744C20.987,55.664,21,56.007,21,56.355v22.52   C21,79.559,21.049,80.218,21.238,80.84z M73.98,25.155c-5.998-5.026-14.395-7.793-23.499-7.793s-17.521,2.768-23.52,7.793   C20.509,30.561,17,38.096,17,46.944v5.786c-1,0.273-1,0.601-2,0.978v-4.076C15,28.29,27.396,16,47.815,16h5.176   C73.41,16,86,28.29,86,49.632v3.865c-1-0.352-2-0.654-2-0.905v-5.647C84,38.096,80.434,30.561,73.98,25.155z M77,78.875   c0,1.795-1.705,3.256-3.5,3.256c-1.797,0-3.5-1.461-3.5-3.256v-22.52c0-1.796,1.703-3.257,3.5-3.257c1.795,0,3.5,1.461,3.5,3.257   V78.875z M79.838,80.84C80.025,80.218,80,79.559,80,78.875v-22.52c0-0.349,0.301-0.691,0.25-1.027   c2.281,0.296,3.75,1.234,5.75,2.564V58h-0.232c2.489,3,3.426,6.494,3.426,10.041C89.193,73.609,86.664,80.087,79.838,80.84z"></path></g><g display="none"><path display="inline" d="M79.284,11.575l-26.694,0.3c-1.851,0.021-3.636,0.565-5.169,1.534l-12.344,3.357   c-0.046,0.013-0.092,0.027-0.137,0.043l-4.215,1.464l-0.002-0.004l-0.022,0.012l-0.485,0.168c-1.197,0.416-2.288,1.053-3.228,1.867   l-3.631,1.99l-2.49,1.387l-0.04-0.054l-0.396,0.297l-1.217,0.677c-1.076,0.6-2.02,1.391-2.794,2.325l-6.303,4.717   c-0.018,0.013-0.034,0.026-0.051,0.04c-2.062,1.648-3.357,4-3.649,6.621c-0.288,2.594,0.439,5.146,2.051,7.194l25.596,37.792   c0.029,0.043,0.062,0.086,0.095,0.128c2.007,2.511,4.998,3.78,7.986,3.702c2.064-0.055,4.127-0.752,5.864-2.131l7.094-5.229   l8.012-1.512l4.088-0.767l-0.021,0.32l12.929,0.358c0.052-0.002,0.102-0.003,0.154-0.004c5.361-0.141,9.66-5.125,9.6-10.491   L89.28,21.594C89.219,16.147,84.731,11.515,79.284,11.575z M28.346,24.97c0.273-0.499,0.617-0.949,1.015-1.341l2.988-1.638   l1.491-0.518c-0.788,1.802-1.033,3.817-0.666,5.776l7.825,45.08l-13.03-42.562c-0.007-0.024-0.015-0.047-0.023-0.072   C27.405,28.139,27.551,26.417,28.346,24.97z M42.822,21.866l0.508,40.243l-6.174-35.565c-0.002-0.01-0.004-0.02-0.006-0.03   c-0.302-1.603,0.086-3.272,1.065-4.58c0.875-1.169,2.149-1.963,3.586-2.234l1.286-0.242C42.902,20.238,42.812,21.044,42.822,21.866   z M23.634,26.783c-0.144,1.405,0.011,2.84,0.479,4.202l13.082,42.733L18.978,36.185c-0.017-0.034-0.035-0.068-0.053-0.101   c-0.815-1.464-0.961-3.212-0.397-4.795c0.184-0.517,0.438-1,0.752-1.438l3.356-2.512L23.634,26.783z M11.679,43.051   c-0.974-1.217-1.414-2.739-1.241-4.287c0.17-1.538,0.928-2.918,2.131-3.891l1.59-1.189c0.065,1.497,0.469,2.975,1.204,4.314   l17.951,36.985l-21.54-31.803C11.743,43.136,11.712,43.093,11.679,43.051z M85.807,67.224c0.035,3.168-2.51,5.813-5.675,5.896   l-26.788,0.304c-3.217,0.035-5.863-2.553-5.899-5.771l-0.578-45.834c-0.015-1.289,0.385-2.516,1.154-3.547   c0.103-0.141,0.209-0.271,0.312-0.387c1.085-1.223,2.58-1.92,4.21-1.963l26.787-0.302c3.217-0.036,5.864,2.552,5.899,5.771   L85.807,67.224z"></path></g><g display="none"><g display="inline"><path d="M75.288,49.922c0-4.443-5.288-8.361-12.288-10.464V15.964C63,11.112,58.521,8,53.669,8h-2.095h-4.476h-2.095    C40.153,8,36,11.112,36,15.964v23.941l0.064-0.125c-3.334,1.015-6.079,2.408-8.033,4.028c-2.188,1.815-3.32,3.929-3.32,6.113    c0,0.444,0.061,0.883,0.154,1.316l-0.07,0.023l9.015,27.773c0.111,2.227,1.909,4.231,5.085,5.661    c2.956,1.331,6.856,2.064,10.984,2.064c4.127,0,8.028-0.733,10.983-2.064c3.177-1.43,4.972-3.434,5.085-5.661l9.013-27.773    l0.055-0.024C75.109,50.805,75.288,50.366,75.288,49.922z M61,15.964v34.961c0,0.119-1.244,0.734-3.81,1.255    c-0.323,0.065-0.894,0.126-1.246,0.181C56.126,51.934,56,51.471,56,50.979V15.964C56,13.56,54.941,12,53.334,9h0.335    C57.102,9,61,12.531,61,15.964z M49.445,53C46.948,53,45,51.876,45,50.979V15.964c0-2.604,2.1-4.892,4.5-5.812    c2.401,0.92,4.5,3.207,4.5,5.812v35.016C54,51.876,51.796,53,49.302,53H49.445z M38,15.964C38,12.531,41.572,9,45.004,9h0.337    C43.73,12,43,13.56,43,15.964v35.016c0,0.491-0.015,0.954,0.167,1.381c-0.354-0.055-1.141-0.115-1.464-0.181    C39.138,51.659,38,51.044,38,50.925V15.964z M36,42.471v8.509c0,2.491,3.637,3.127,4.799,3.398C43.04,54.901,46.152,55,49.351,55    h-0.007c0,0-0.004,0-0.003,0h-0.002c3.197,0,6.46-0.099,8.702-0.622C59.202,54.106,63,53.471,63,50.979v-8.845    c6,1.776,9.713,4.768,9.713,7.787c0,2.299-2.402,4.642-6.359,6.424c-4.346,1.956-10.215,3.033-16.407,3.033    c-6.194,0-12.03-1.077-16.374-3.033c-3.958-1.782-6.348-4.125-6.348-6.424C27.225,47.108,31,44.287,36,42.471z M64,78.61v0.205    c0,1.206-1.648,2.525-3.884,3.533c-2.629,1.186-6.311,1.839-10.081,1.839s-7.565-0.653-10.195-1.839    C37.604,81.341,36,80.021,36,78.815V78.61l-6.825-21.623c0.913,0.611,2.05,1.183,3.214,1.706c4.668,2.102,10.893,3.26,17.443,3.26    c6.551,0,12.752-1.158,17.421-3.26c1.165-0.525,2.528-1.095,3.442-1.707L64,78.61z"></path><circle cx="49.02" cy="17.007" r="0.965"></circle><circle cx="49.02" cy="24.538" r="0.966"></circle><circle cx="49.02" cy="32.312" r="0.966"></circle><circle cx="49.02" cy="39.744" r="0.965"></circle><circle cx="49.02" cy="47.518" r="0.965"></circle><circle cx="40.716" cy="17.007" r="0.965"></circle><circle cx="40.716" cy="24.538" r="0.966"></circle><circle cx="40.716" cy="32.312" r="0.966"></circle><circle cx="40.716" cy="39.744" r="0.965"></circle><circle cx="40.716" cy="47.518" r="0.965"></circle><circle cx="57.961" cy="17.007" r="0.965"></circle><circle cx="57.961" cy="24.538" r="0.966"></circle><circle cx="57.961" cy="32.312" r="0.966"></circle><circle cx="57.961" cy="39.744" r="0.965"></circle><circle cx="57.961" cy="47.518" r="0.965"></circle></g></g><g><g><path d="M72.782,87c-3.867,0-7.013-3.146-7.013-7.014V57.471H54.44v22.516c0,3.867-3.146,7.014-7.013,7.014    c-3.867,0-7.013-3.146-7.013-7.014V57.471H23.013c-3.867,0-7.013-3.146-7.013-7.013V19.972c0-3.867,3.146-7.013,7.013-7.013    s7.013,3.146,7.013,7.013v23.474h10.388V19.948c0-3.867,3.146-7.013,7.013-7.013c3.868,0,7.013,3.146,7.013,7.013v23.497H65.77    V19.948c0-3.867,3.146-7.013,7.013-7.013c3.739,0,6.816,2.924,7.004,6.656c0.007,0.128,0.011,0.255,0.011,0.38v30.486    c0,0.03-0.001,0.059-0.002,0.088v29.44C79.795,83.854,76.649,87,72.782,87z M51.323,54.354h17.562v25.632    c0,2.148,1.748,3.896,3.896,3.896s3.896-1.748,3.896-3.896l0.001-29.484l0.001-0.058V19.972c0-0.072-0.002-0.145-0.006-0.217    c-0.104-2.079-1.814-3.703-3.892-3.703c-2.148,0-3.896,1.748-3.896,3.896v26.614H51.323V19.948c0-2.148-1.747-3.896-3.896-3.896    c-2.148,0-3.896,1.748-3.896,3.896v26.614H26.909v-26.59c0-2.148-1.748-3.896-3.896-3.896s-3.896,1.748-3.896,3.896v30.486    c0,2.148,1.748,3.896,3.896,3.896h20.518v25.632c0,2.148,1.748,3.896,3.896,3.896c2.149,0,3.896-1.748,3.896-3.896V54.354z"></path></g></g></svg>