<?xml version="1.0" encoding="utf-8"?>
<!-- Generator: Adobe Illustrator 16.0.0, SVG Export Plug-In . SVG Version: 6.00 Build 0)  -->
<!DOCTYPE svg PUBLIC "-//W3C//DTD SVG 1.1//EN" "http://www.w3.org/Graphics/SVG/1.1/DTD/svg11.dtd">
<svg version="1.1" xmlns="http://www.w3.org/2000/svg" xmlns:xlink="http://www.w3.org/1999/xlink" x="0px" y="0px" width="524px"
	 height="455px" viewBox="0 0 524 455" enable-background="new 0 0 524 455" xml:space="preserve">
<g id="Layer_21" display="none">
	<rect x="-46.25" y="-16" display="inline" fill="#E5F3FD" stroke="#000000" stroke-miterlimit="10" width="605" height="510"/>
</g>
<g id="Layer_30">
	<path fill="#FFFDFE" stroke="#231F20" stroke-width="2" stroke-miterlimit="10" d="M519.077,424.87c0,6.47-5.372,11.715-12,11.715
		H16.603c-6.627,0-12-5.245-12-11.715V16.322c0-6.47,5.373-11.715,12-11.715h490.474c6.628,0,12,5.245,12,11.715V424.87z"/>
</g>
<g id="Layer_33">
	<circle fill="#FF00CC" stroke="#020202" stroke-width="2" stroke-miterlimit="10" cx="378.5" cy="161.167" r="17"/>
	<circle fill="#FF00CC" stroke="#020202" stroke-width="2" stroke-miterlimit="10" cx="378.75" cy="161.415" r="8.917"/>
	<circle fill="#EAA2DC" stroke="#020202" stroke-width="2" stroke-miterlimit="10" cx="377.5" cy="92.667" r="17"/>
	<circle fill="#FF00CC" stroke="#020202" stroke-width="2" stroke-miterlimit="10" cx="377.75" cy="92.915" r="8.917"/>
	<circle fill="#FF00CC" stroke="#020202" stroke-width="2" stroke-miterlimit="10" cx="379.833" cy="289.251" r="17"/>
	<circle fill="#EAA2DC" stroke="#020202" stroke-width="2" stroke-miterlimit="10" cx="380.083" cy="289.5" r="8.917"/>
	<circle fill="#FF00CC" stroke="#020202" stroke-width="2" stroke-miterlimit="10" cx="378.833" cy="220.751" r="17"/>
	<circle fill="#FF00CC" stroke="#020202" stroke-width="2" stroke-miterlimit="10" cx="379.083" cy="221" r="8.917"/>
	<circle fill="#12B7DD" stroke="#000000" stroke-width="2" stroke-miterlimit="10" cx="432.5" cy="162.167" r="17"/>
	<circle fill="#12B7DD" stroke="#000000" stroke-width="2" stroke-miterlimit="10" cx="432.75" cy="162.415" r="8.917"/>
	<circle fill="#12B7DD" stroke="#000000" stroke-width="2" stroke-miterlimit="10" cx="431.5" cy="93.667" r="17"/>
	<circle fill="#88CFFF" stroke="#000000" stroke-width="2" stroke-miterlimit="10" cx="431.75" cy="93.915" r="8.917"/>
	<circle fill="#12B7DD" stroke="#000000" stroke-width="2" stroke-miterlimit="10" cx="433.833" cy="290.251" r="17"/>
	<circle fill="#12B7DD" stroke="#000000" stroke-width="2" stroke-miterlimit="10" cx="434.083" cy="290.5" r="8.917"/>
	<circle fill="#12B7DD" stroke="#000000" stroke-width="2" stroke-miterlimit="10" cx="432.833" cy="221.751" r="17"/>
	<circle fill="#88CFFF" stroke="#000000" stroke-width="2" stroke-miterlimit="10" cx="433.083" cy="222" r="8.917"/>
	<circle fill="#E3943B" stroke="#020202" stroke-width="2" stroke-miterlimit="10" cx="470.816" cy="172.765" r="5.379"/>
	<circle fill="#3EC173" stroke="#000000" stroke-width="2" stroke-miterlimit="10" cx="470.213" cy="131.439" r="5.379"/>
	<circle fill="#E3943B" stroke="#020202" stroke-width="2" stroke-miterlimit="10" cx="471.621" cy="252.038" r="5.379"/>
	<circle fill="#3EC173" stroke="#000000" stroke-width="2" stroke-miterlimit="10" cx="471.018" cy="210.712" r="5.379"/>
	<circle fill="#E3943B" stroke="#020202" stroke-width="2" stroke-miterlimit="10" cx="487" cy="173" r="5.379"/>
	<circle fill="#3EC173" stroke="#000000" stroke-width="2" stroke-miterlimit="10" cx="486.396" cy="131.674" r="5.379"/>
	<circle fill="#3EC173" stroke="#000000" stroke-width="2" stroke-miterlimit="10" cx="487.805" cy="252.272" r="5.379"/>
	<circle fill="#E3943B" stroke="#020202" stroke-width="2" stroke-miterlimit="10" cx="487.201" cy="210.947" r="5.379"/>
	<circle fill="none" stroke="#231F20" stroke-width="2" stroke-miterlimit="10" cx="130.833" cy="287.166" r="26"/>
	<line fill="none" stroke="#231F20" stroke-width="2" stroke-miterlimit="10" x1="130.833" y1="261.166" x2="130.833" y2="268.5"/>
	<line fill="none" stroke="#231F20" stroke-width="2" stroke-miterlimit="10" x1="131.333" y1="305.666" x2="131.333" y2="313"/>
	<line fill="none" stroke="#231F20" stroke-width="2" stroke-miterlimit="10" x1="157" y1="287.833" x2="149.667" y2="287.833"/>
	<line fill="none" stroke="#231F20" stroke-width="2" stroke-miterlimit="10" x1="112.5" y1="288.333" x2="105.167" y2="288.333"/>
	
		<line fill="none" stroke="#231F20" stroke-width="2" stroke-miterlimit="10" x1="148.137" y1="267.986" x2="142.978" y2="273.199"/>
	<line fill="none" stroke="#231F20" stroke-width="2" stroke-miterlimit="10" x1="118.189" y1="300.467" x2="113.03" y2="305.68"/>
	<line fill="none" stroke="#231F20" stroke-width="2" stroke-miterlimit="10" x1="113.53" y1="267.986" x2="118.689" y2="273.199"/>
	<line fill="none" stroke="#231F20" stroke-width="2" stroke-miterlimit="10" x1="142.978" y1="301.467" x2="148.137" y2="306.68"/>
	<circle fill="none" stroke="#231F20" stroke-width="2" stroke-miterlimit="10" cx="60.833" cy="288.166" r="26"/>
	<line fill="none" stroke="#231F20" stroke-width="2" stroke-miterlimit="10" x1="60.833" y1="262.166" x2="60.833" y2="269.5"/>
	<line fill="none" stroke="#231F20" stroke-width="2" stroke-miterlimit="10" x1="61.333" y1="306.666" x2="61.333" y2="314"/>
	<line fill="none" stroke="#231F20" stroke-width="2" stroke-miterlimit="10" x1="87" y1="288.833" x2="79.667" y2="288.833"/>
	<line fill="none" stroke="#231F20" stroke-width="2" stroke-miterlimit="10" x1="42.5" y1="289.333" x2="35.167" y2="289.333"/>
	<circle fill="#231F20" stroke="#231F20" stroke-width="2" stroke-miterlimit="10" cx="130.833" cy="287.666" r="2.25"/>
	
		<line fill="#231F20" stroke="#231F20" stroke-width="2" stroke-miterlimit="10" x1="130.614" y1="287.949" x2="143.387" y2="294.884"/>
	<circle fill="none" stroke="#231F20" stroke-width="2" stroke-miterlimit="10" cx="60.022" cy="219.532" r="26"/>
	<line fill="none" stroke="#231F20" stroke-width="2" stroke-miterlimit="10" x1="60.022" y1="193.532" x2="60.022" y2="200.865"/>
	<line fill="none" stroke="#231F20" stroke-width="2" stroke-miterlimit="10" x1="60.522" y1="238.032" x2="60.522" y2="245.366"/>
	<line fill="none" stroke="#231F20" stroke-width="2" stroke-miterlimit="10" x1="41.689" y1="220.699" x2="34.355" y2="220.699"/>
	<line fill="none" stroke="#231F20" stroke-width="2" stroke-miterlimit="10" x1="77.326" y1="200.352" x2="72.167" y2="205.564"/>
	<line fill="none" stroke="#231F20" stroke-width="2" stroke-miterlimit="10" x1="47.378" y1="232.833" x2="42.219" y2="238.045"/>
	<line fill="none" stroke="#231F20" stroke-width="2" stroke-miterlimit="10" x1="42.719" y1="200.352" x2="47.878" y2="205.564"/>
	<line fill="none" stroke="#231F20" stroke-width="2" stroke-miterlimit="10" x1="72.167" y1="233.833" x2="77.326" y2="239.045"/>
	<circle fill="#231F20" stroke="#231F20" stroke-width="2" stroke-miterlimit="10" cx="60.022" cy="220.032" r="2.25"/>
	<line fill="none" stroke="#231F20" stroke-width="2" stroke-miterlimit="10" x1="45.77" y1="218.813" x2="60.274" y2="219.75"/>
	<circle fill="#231F20" stroke="#231F20" stroke-width="2" stroke-miterlimit="10" cx="60.833" cy="288.833" r="2.25"/>
	<line fill="none" stroke="#231F20" stroke-width="2" stroke-miterlimit="10" x1="85.023" y1="219.365" x2="77.689" y2="219.365"/>
	<line fill="none" stroke="#231F20" stroke-width="2" stroke-miterlimit="10" x1="60.245" y1="288.164" x2="50.241" y2="280.951"/>
	<circle fill="none" stroke="#231F20" stroke-width="2" stroke-miterlimit="10" cx="130.5" cy="218.166" r="26"/>
	<line fill="none" stroke="#231F20" stroke-width="2" stroke-miterlimit="10" x1="130.5" y1="192.166" x2="130.5" y2="199.5"/>
	<line fill="none" stroke="#231F20" stroke-width="2" stroke-miterlimit="10" x1="131" y1="236.666" x2="131" y2="244"/>
	
		<line fill="none" stroke="#231F20" stroke-width="2" stroke-miterlimit="10" x1="156.667" y1="218.833" x2="149.333" y2="218.833"/>
	
		<line fill="none" stroke="#231F20" stroke-width="2" stroke-miterlimit="10" x1="112.167" y1="219.333" x2="104.833" y2="219.333"/>
	<circle fill="#231F20" stroke="#231F20" stroke-width="2" stroke-miterlimit="10" cx="130.5" cy="218.833" r="2.25"/>
	
		<line fill="none" stroke="#231F20" stroke-width="2" stroke-miterlimit="10" x1="131.132" y1="217.886" x2="134.021" y2="205.896"/>
	<path fill="#FFCC00" stroke="#000000" stroke-width="2" stroke-miterlimit="10" d="M47,334.75c0,0.967-1.567,1.75-3.5,1.75l0,0
		c-1.933,0-3.5-0.783-3.5-1.75v-5c0-0.967,1.567-1.75,3.5-1.75l0,0c1.933,0,3.5,0.783,3.5,1.75V334.75z"/>
	<path fill="#6A3D9A" stroke="#231F20" stroke-width="2" stroke-miterlimit="10" d="M59.5,334.75c0,0.967-1.567,1.75-3.5,1.75l0,0
		c-1.933,0-3.5-0.783-3.5-1.75v-5c0-0.967,1.567-1.75,3.5-1.75l0,0c1.933,0,3.5,0.783,3.5,1.75V334.75z"/>
	<path fill="#6A3D9A" stroke="#231F20" stroke-width="2" stroke-miterlimit="10" d="M71,334.5c0,0.967-1.567,1.75-3.5,1.75l0,0
		c-1.933,0-3.5-0.783-3.5-1.75v-5c0-0.967,1.567-1.75,3.5-1.75l0,0c1.933,0,3.5,0.783,3.5,1.75V334.5z"/>
	<path fill="#6A3D9A" stroke="#231F20" stroke-width="2" stroke-miterlimit="10" d="M83.5,334.5c0,0.967-1.567,1.75-3.5,1.75l0,0
		c-1.933,0-3.5-0.783-3.5-1.75v-5c0-0.967,1.567-1.75,3.5-1.75l0,0c1.933,0,3.5,0.783,3.5,1.75V334.5z"/>
	<path fill="#FFCC00" stroke="#000000" stroke-width="2" stroke-miterlimit="10" d="M115.5,334.75c0,0.967-1.567,1.75-3.5,1.75l0,0
		c-1.933,0-3.5-0.783-3.5-1.75v-5c0-0.967,1.567-1.75,3.5-1.75l0,0c1.933,0,3.5,0.783,3.5,1.75V334.75z"/>
	<path fill="#6A3D9A" stroke="#231F20" stroke-width="2" stroke-miterlimit="10" d="M128,334.75c0,0.967-1.567,1.75-3.5,1.75l0,0
		c-1.933,0-3.5-0.783-3.5-1.75v-5c0-0.967,1.567-1.75,3.5-1.75l0,0c1.933,0,3.5,0.783,3.5,1.75V334.75z"/>
	<path fill="#FFCC00" stroke="#000000" stroke-width="2" stroke-miterlimit="10" d="M139.5,334.5c0,0.967-1.567,1.75-3.5,1.75l0,0
		c-1.933,0-3.5-0.783-3.5-1.75v-5c0-0.967,1.567-1.75,3.5-1.75l0,0c1.933,0,3.5,0.783,3.5,1.75V334.5z"/>
	<path fill="#6A3D9A" stroke="#231F20" stroke-width="2" stroke-miterlimit="10" d="M152,334.5c0,0.967-1.567,1.75-3.5,1.75l0,0
		c-1.933,0-3.5-0.783-3.5-1.75v-5c0-0.967,1.567-1.75,3.5-1.75l0,0c1.933,0,3.5,0.783,3.5,1.75V334.5z"/>
	<line fill="none" stroke="#FF00CC" stroke-width="2" stroke-miterlimit="10" x1="377" y1="47" x2="377" y2="69"/>
	<line fill="none" stroke="#FF00CC" stroke-width="2" stroke-miterlimit="10" x1="392.459" y1="73.844" x2="405.541" y2="56.156"/>
	<line fill="none" stroke="#FF00CC" stroke-width="2" stroke-miterlimit="10" x1="361.32" y1="114.372" x2="350.68" y2="133.628"/>
	<line fill="none" stroke="#FF00CC" stroke-width="2" stroke-miterlimit="10" x1="420" y1="92" x2="398" y2="92"/>
	<line fill="none" stroke="#FF00CC" stroke-width="2" stroke-miterlimit="10" x1="363.541" y1="72.844" x2="350.459" y2="55.156"/>
	
		<line fill="none" stroke="#FF00CC" stroke-width="2" stroke-miterlimit="10" x1="392.459" y1="109.156" x2="405.541" y2="126.844"/>
</g>
<g id="Layer_7">
</g>
<g id="Layer_28">
	
		<ellipse transform="matrix(-0.9334 -0.3588 0.3588 -0.9334 576.5137 472.5307)" fill="#7C7C7C" stroke="#104051" stroke-width="5" stroke-miterlimit="10" cx="332.105" cy="182.768" rx="18.154" ry="70.707"/>
	<path fill="#7C7C7C" stroke="#104051" stroke-width="5" stroke-miterlimit="10" d="M383.102,115.044
		c0.771,4.174,5.223,34.271,5.223,34.271l-7.742-12.896l0.525,23.38c0,0-13.186-16.785-17.851-15.924
		c-13.442,2.481-26.35-6.404-28.831-19.845c-2.481-13.441,6.403-26.349,19.845-28.83C367.712,92.718,380.62,101.603,383.102,115.044
		z"/>
</g>
<g id="Layer_4">
	<path fill="none" stroke="#000000" stroke-miterlimit="10" d="M282,173.5c0-5.527,35-35.5,66.5-21"/>
	<path fill="none" stroke="#000000" stroke-miterlimit="10" d="M281.5,166.5c0-5.527,46.5-44.5,72-25.5"/>
	<path fill="none" stroke="#000000" stroke-miterlimit="10" d="M218,177.5c0-5.527-35-35.5-66.5-21"/>
	<path fill="none" stroke="#231F20" stroke-miterlimit="10" d="M218.5,170.5c0-5.527-46.5-44.5-72-25.5"/>
	<polygon fill="none" stroke="#FFCC00" stroke-miterlimit="10" points="240.542,57.042 236.791,54.943 232.936,56.844 
		233.772,52.628 230.774,49.549 235.042,49.042 237.043,45.239 238.845,49.141 243.08,49.87 239.925,52.788 	"/>
	<path fill="none" stroke="#FFFFFF" stroke-miterlimit="10" d="M274.354,60.776"/>
	<polyline fill="none" stroke="#FFCC00" stroke-miterlimit="10" points="276.62,69.657 277.532,78.376 269.557,73.491 
		261.009,77.292 263.191,68.195 256.936,61.242 266.261,60.506 270.375,53.375 	"/>
</g>
<g id="Layer_12">
</g>
<g id="Layer_13">
</g>
<g id="Layer_8">
	<path fill="#7C7C7C" stroke="#104051" stroke-width="5" stroke-miterlimit="10" d="M335,413.5c0,0-5.715-1.656-5.957-1.901
		c-6.429-6.514,6.027-22.434,6.027-34.03c0-30.009-11.881-54.337-26.535-54.337S282,347.56,282,377.568
		c0,22.58,7.489,44.621,17.107,52.982c0.335,3.098-6.44,8.116-6.44,8.116L304,440l-8.259,5.076c0,0,7.874,1.983,14.256,1.966
		c1.874-0.005,3.62-2.011,4.999-2.016c3.841-0.014,7.741,3.318,9.803,3.976c4.701,1.498,14.154-0.547,17.328-1.535
		c9.524-2.967,12.373-7.467,11.207-17.006C352.27,421.749,347.555,415.046,335,413.5z"/>
	<path fill="#7C7C7C" stroke="#104051" stroke-width="5" stroke-miterlimit="10" d="M168.58,412.5c0,0,5.715-1.656,5.957-1.901
		c6.429-6.514-6.027-22.434-6.027-34.03c0-30.009,11.881-54.337,26.535-54.337s26.535,24.328,26.535,54.337
		c0,22.58-7.489,44.621-17.107,52.982c-0.335,3.098,6.44,8.116,6.44,8.116L199.58,439l8.259,5.076c0,0-7.874,1.983-14.256,1.966
		c-1.874-0.005-3.62-2.011-4.999-2.016c-3.841-0.014-7.741,3.318-9.803,3.976c-4.701,1.498-14.154-0.547-17.328-1.535
		c-9.524-2.967-12.373-7.467-11.207-17.006C151.311,420.749,156.025,414.046,168.58,412.5z"/>
</g>
<g id="Layer_9">
</g>
<g id="Layer_2">
	<path fill="#7C7C7C" stroke="#104051" stroke-width="5" stroke-miterlimit="10" d="M320,311.5c0,73.178-30.939,132.5-69.105,132.5
		c-38.167,0-69.105-59.322-69.105-132.5S212.728,189,250.895,189C289.061,189,320,238.322,320,311.5z"/>
	<rect x="-165" y="186" fill="#E3943B" stroke="#020202" stroke-miterlimit="10" width="34" height="31"/>
	<rect x="-164" y="229.5" fill="#12B7DD" stroke="#000000" stroke-miterlimit="10" width="34" height="31"/>
	<rect x="-172" y="42" fill="#393939" stroke="#000000" stroke-miterlimit="10" width="34" height="31"/>
	<rect x="-165" y="273" fill="#88CFFF" stroke="#000000" stroke-miterlimit="10" width="34" height="31"/>
	<rect x="-165" y="314" fill="#FFFFFF" stroke="#115D7F" stroke-width="6" stroke-miterlimit="10" width="34" height="31"/>
	<rect x="-165" y="361" fill="#FFFFFF" stroke="#104051" stroke-width="6" stroke-miterlimit="10" width="34" height="31"/>
	<rect x="-119" y="359" fill="#104051" width="34" height="31"/>
</g>
<g id="Layer_6">
</g>
<g id="Layer_22">
</g>
<g id="Layer_19">
</g>
<g id="Layer_16">
	<path fill="#7C7C7C" d="M169.5,65l3,9.5l11,4.5l10.5,5l11.5,10l-1,3.5l-11,11l-8.5,10l-9.5,17.5l-4.675,13.229L172,166l4.5,20
		l7.5,10.5l7.5,11.5l8,9.5L208,230l2-5.5l-4.5-16.5l-6.5-18.5l-4.5-19l0.5-20l9-8l8.5-4L223,137l7,2.5l4.5,8.5l-1.5,13.5l-5,12
		l-4.5,6.5l-1,7.5l6,8.5l8,1.5l7-1l6-4l4.5,3.5l10,2l7-2.5l5-6.5l0.5-7l-3-9.5l-6.5-12l-0.5-15l3.5-6.5l11-3l14.5,5l7.5,8l2.5,9
		l1,13l-7,25c0,0-6,10-5.5,12.5s-5.892,16.485-5.892,16.485L290.5,232l10.5-11.5l5-11l10-11l5.5-9l7-27l-1.5-21L315.5,120L297,100
		l-3-5l15.5-12.5l13-5l4.5-2l2.875-8.25L331,60l-9,9.5l-20.5,4l-11,4.5l-5.852,5.025L283,87l-2.5,2l-5,2.5L258,92l-12.5,3.5l-12-2
		L225,90l-7.5-3l-6-6l-5.5-5l-8-2.5L187.5,72L169.5,65z"/>
	<polygon fill="#7C7C7C" stroke="#000000" stroke-miterlimit="10" points="232,199 235.5,205.5 241,210 251.5,210.5 257.5,210 
		266,205 268,198 254,196 249.5,192.5 243.5,196.5 236.5,197.5 	"/>
	<polygon fill="#7C7C7C" points="172.5,74.5 174,86 178.5,96 186,107.5 188.5,112.5 200.5,101 205.5,94 202.5,89.5 186,80 	"/>
	<polygon fill="#7C7C7C" points="327,75.5 317,79 306.5,85 296.5,92 294,95 302.5,100.5 310,110 313,112 316.5,107.5 322.5,97 
		327.5,85.5 329.5,78.5 	"/>
	<polygon fill="#7C7C7C" points="212.5,138.5 202,142.5 198,148 196,153.5 193.5,165.5 193.5,174.5 196.5,184.5 201,194.5 206,205 
		210,220 210.5,233 211,237 217,232.5 222.5,223 228.5,210 231.5,204 228.5,196 223,183 228,173.5 233,161.5 233.5,155 234.5,148 
		230,139.5 215,136 	"/>
	<polygon fill="#7C7C7C" points="269,142.5 267,151.5 267,160.5 273.5,172.5 276.5,182 276,189 270,197.5 269.5,204 273,216.5 
		280.5,226 286.5,235.5 290.5,236 290,224 294,208.5 297.5,199 304.5,186 306.5,171 307.5,156 302.367,143.568 287,137.5 278,136.5 
		270,139 	"/>
</g>
<g id="Layer_20">
	<polygon fill="#FFCC00" points="243.5,174.5 250,174.5 257,175 259.841,177.654 261.5,179.5 255.5,181 251.839,183.664 
		250.5,188.5 246,183.5 240.5,180 237.5,178 	"/>
</g>
<g id="Layer_18">
	<g>
		<path fill="#104051" d="M331.374,35.273c-0.62-2.245-1.762-3.121-3.4-2.512c-1.829,0.679-1.65,2.122-1.378,3.737
			c0.919,5.423,1.587,10.891,2.569,16.3c0.807,4.441-1.388,7.46-4.358,10.145c-4.65,4.204-10.414,6.059-16.373,7.396
			c-2.788,0.625-5.615,1.053-8.412,1.629c-6.667,1.374-12.085,4.803-16.373,10.058c-0.552,0.676-1.096,1.358-1.674,2.076
			c-3.108-8.637-5.912-17.256-9.305-25.637c-3.93-9.711-8.265-19.264-12.663-28.775c-1.476-3.19-3.598-6.098-5.581-9.028
			c-1.89-2.791-4.271-5.106-7.473-6.414c-1.091,0-2.184,0-3.275,0c-5.572,0.908-9.971,4.054-14.396,7.285
			c-1.999,1.459-4.452,2.305-6.722,3.382c-0.92,0.436-1.946,0.66-2.835,1.143c-0.547,0.296-0.927,0.9-1.382,1.366
			c0.421,0.398,0.781,0.912,1.274,1.174c3.399,1.809,7.042,2.117,10.725,1.292c1.086-0.243,2.003-1.238,2.944-1.853
			c0.143,1.388-1.924,2.738-0.479,4.672c0.751-0.673,1.39-1.244,2.365-2.117c-0.242,0.981-0.357,1.587-0.541,2.173
			c-2.053,6.563-4.005,13.161-6.208,19.674C226.111,59.278,224,65.75,220.75,73c-0.232,0.518-0.409,1.095-0.5,1.625
			c-0.75,4.375-0.841,5.471-1.37,7.825c-1.637-1.409-3.368-2.89-5.091-4.381c-4.815-4.166-10.566-5.991-16.745-6.916
			c-5.33-0.797-10.566-2.09-15.351-4.668c-1.961-1.057-3.857-2.349-5.515-3.833c-2.882-2.582-4.84-5.602-4.069-9.851
			c0.981-5.411,1.652-10.877,2.569-16.3c0.273-1.615,0.454-3.058-1.375-3.739c-1.64-0.61-2.917,0.24-3.376,2.514
			c-0.901,4.458-1.603,8.957-2.395,13.437c-0.117,0.66-0.273,1.313-0.41,1.969c0,4.367,0,8.734,0,13.101
			c0.49,3.618,0.829,7.264,1.496,10.849c2.542,13.677,8.312,25.981,16.274,37.294c0.98,1.393,0.953,2.289,0.036,3.696
			c-6.737,10.339-12.148,21.313-14.104,33.608c-3.039,19.101,0.985,36.582,13.344,51.692c6.736,8.235,13.722,16.269,18.667,25.752
			c2.057,3.945,3.502,8.208,5.225,12.326c2.32,0,4.64,0,6.959,0c3.211-4.388,6.74-8.583,9.553-13.212
			c3.445-5.671,6.293-11.705,9.289-17.373c11.113,6.531,22.434,6.509,33.407,0.093c3.672,6.606,7.29,13.524,11.316,20.197
			c2.2,3.646,5.089,6.877,7.669,10.295c2.319,0,4.639,0,6.958,0c2.264-5.063,3.979-10.477,6.919-15.11
			c4.436-6.988,9.334-13.771,14.74-20.036c10.444-12.108,15.888-25.952,16.544-41.851c0.475-11.516-2.509-22.233-7.359-32.479
			c-2.293-4.842-5.1-9.45-7.844-14.064c-0.777-1.308-0.853-2.099,0.048-3.373c8.034-11.351,13.833-23.712,16.395-37.457
			c0.669-3.585,1.007-7.231,1.497-10.849c0-4.367,0-8.734,0-13.101c-0.554-3.619-1.066-7.244-1.678-10.853
			C332.214,38.292,331.79,36.779,331.374,35.273z M174.424,77.874c10.985,4.125,20.926,9.138,28.991,16.61
			c-5.009,4.824-9.856,9.493-14.761,14.218C182.461,100.012,177.454,89.667,174.424,77.874z M229.821,203.317
			c-1.018,6.38-10.768,23.594-15.873,28.753c-0.319-2.723-0.583-5.309-0.932-7.882c-1.375-10.141-4.561-19.73-9.156-28.834
			c-4.706-9.322-7.602-19.095-7.52-29.574c0.059-7.605,1.755-14.746,7.564-20.271c3.081-2.931,6.725-4.753,11.087-5.608
			c-1.001,5.601,0.54,9.255,4.529,11.155c3.928,1.871,7.678,0.741,11.467-3.604c1.044,3.066,0.989,6.082,0.721,9.078
			c-0.604,6.725-2.801,12.799-7.104,18.149c-5.969,7.425-3.971,18.593,3.427,23.478
			C229.272,198.977,230.082,201.685,229.821,203.317z M219.49,143.224c-0.007-1.944,1.709-3.717,3.596-3.715
			c2.099,0.001,3.845,1.688,3.838,3.707c-0.006,2.036-1.778,3.759-3.815,3.707C221.159,146.872,219.498,145.175,219.49,143.224z
			 M249.653,208.117c-5.995-0.111-11.819-1.122-15.182-7.657c6.344,0.385,11.826-0.833,16.138-5.779
			c4.235,4.829,9.729,6.219,16.311,5.746C262.814,207.678,256.26,208.238,249.653,208.117z M249.462,183.711
			c-1.833-3.132-4.286-5.372-8.044-6.034c6.144-1.825,12.259-1.753,18.423-0.023c-3.711,0.7-6.174,2.906-8.002,6.01
			C250.915,185.231,250.358,185.243,249.462,183.711z M287.376,232.16c-0.597-0.649-1.066-1.086-1.449-1.59
			c-6.066-7.965-10.803-16.655-14.202-26.072c-0.85-2.351,0.116-5.51,2.106-6.922c7.146-5.066,8.598-15.577,2.832-22.879
			c-5.3-6.71-7.39-14.285-7.18-22.648c0.038-1.468,0.355-2.928,0.599-4.82c4.008,4.57,7.738,5.697,11.663,3.832
			c3.997-1.899,5.558-5.597,4.538-11.1c4.275,0.69,7.848,2.554,10.929,5.402c4.814,4.451,6.9,10.189,7.484,16.539
			c1.029,11.16-1.516,21.661-6.423,31.589c-4.952,10.016-8.663,20.39-10.165,31.494C287.802,227.262,287.638,229.557,287.376,232.16
			z M274.349,143.278c-0.042-2.019,1.659-3.715,3.779-3.768c1.878-0.047,3.619,1.691,3.654,3.654
			c0.037,1.926-1.618,3.676-3.554,3.757C276.196,147.007,274.392,145.312,274.349,143.278z M312.608,108.733
			c-4.879-4.753-9.76-9.507-14.708-14.328c8.11-7.453,18.028-12.463,28.966-16.526C323.889,89.632,318.812,99.939,312.608,108.733z
			 M323.587,73.959c-10.37,3.57-19.963,8.713-28.21,16.094c-1.17,1.044-2.287,2.158-3.311,3.341
			c-1.382,1.598-1.186,2.879,0.472,4.166c16.819,13.056,28.076,29.875,32.593,50.659c3.984,18.333-0.334,35.086-12.021,49.892
			c-5.44,6.893-10.733,13.904-15.993,20.937c-1.402,1.878-2.438,4.034-3.643,6.061c-0.166-0.049-0.332-0.099-0.498-0.148
			c0.679-3.145,1.042-6.4,2.099-9.412c2.268-6.466,4.591-12.945,7.439-19.168c4.719-10.306,7.807-20.917,7.344-32.327
			c-0.307-7.58-2.243-14.68-7.491-20.484c-7.004-7.75-15.97-10.065-25.966-8.807c-5.537,0.697-10.43,6.494-11.364,13.06
			c-1.521,10.705,0.466,20.608,7.287,29.263c2.211,2.806,3.365,5.925,2.811,9.505c-0.695,4.482-3.666,7.74-7.903,8.616
			c-4.999,1.033-9.488,0.176-12.931-3.96c-0.88-1.058-1.254-2.083,0.262-3.013c0.494-0.304,0.92-0.855,1.174-1.39
			c1.206-2.544,3.028-4.021,5.965-4.236c2.146-0.157,3.382-1.623,3.712-3.754c0.389-2.484-0.401-4.456-2.69-5.395
			c-2.107-0.864-4.4-1.478-6.664-1.719c-5.368-0.573-10.757-0.622-16.001,1.004c-1.96,0.607-3.631,1.664-4.148,3.833
			c-0.766,3.217,0.9,5.799,4.225,6.144c2.387,0.248,3.825,1.446,4.997,3.366c0.731,1.197,1.701,2.25,2.621,3.441
			c-1.125,3.389-4.896,5.878-9.617,6.067c-4.513,0.181-8.462-1.122-10.716-5.327c-2.301-4.291-1.988-8.665,1.067-12.461
			c6.32-7.85,8.601-16.843,8.196-26.714c-0.313-7.63-4.216-13.946-10.423-15.905c-4.854-1.533-9.874-0.986-14.688,0.468
			c-11.093,3.353-17.368,11.133-19.412,22.296c-2.468,13.474,0.734,26.125,6.592,38.17c4.194,8.625,7.517,17.487,9.138,26.955
			c0.11,0.643,0.162,1.294-0.055,2.034c-1.577-2.595-2.974-5.321-4.766-7.757c-4.156-5.648-8.213-11.41-12.829-16.67
			c-11.568-13.186-16.484-28.528-15.27-45.816c0.702-9.988,4.465-19.163,9.053-27.982c6.042-11.614,14.316-21.35,24.695-29.312
			c1.776-1.362,1.868-2.668,0.232-4.471c-4.686-5.161-10.263-9.231-16.407-12.386c-5.615-2.884-11.466-5.329-17.308-7.737
			c-1.559-0.642-2.311-1.371-2.394-2.971c-0.062-1.191-0.221-2.377-0.37-3.894c7.611,6.857,16.823,8.837,26.225,10.358
			c6.638,1.073,11.959,4.347,15.944,9.773c0.202,0.274,0.495,0.538,0.563,0.845c0.922,4.215,4.389,5.45,7.833,6.626
			c6.25,2.135,12.77,2.737,19.305,3.185c1.895,0.13,3.794,0.191,5.877,0.292c0,0.925,0,1.662,0,2.398
			c0,10.371-0.04,20.742,0.067,31.111c0.011,0.943,0.786,2.098,1.555,2.729c0.434,0.355,1.853,0.119,2.338-0.354
			c0.576-0.561,0.864-1.661,0.868-2.529c0.058-10.233,0.037-20.467,0.037-30.701c0-0.741,0-1.482,0-2.376
			c3.219-0.189,6.355-0.157,9.425-0.601c5.037-0.729,10.086-1.541,15.024-2.751c3.566-0.875,6.288-3.071,8.274-6.454
			c4.157-7.076,10.784-10.411,18.771-11.586c8.764-1.289,17.186-3.601,24.187-9.959c0,0.554-0.011,0.795,0.002,1.035
			C328.968,70.899,327.247,72.698,323.587,73.959z"/>
		<path fill="#104051" d="M262.822,98.825c-1.248,1.041-1.111,2.314,0.121,4.11c1.689,2.46,3.521,4.887,4.763,7.572
			c3.517,7.589,3.175,14.898-2.411,21.534c-1.083,1.286-1.296,2.64-0.029,3.791c1.303,1.181,2.657,0.769,3.732-0.5
			c3.832-4.534,5.822-9.753,5.817-17.716c-0.025-5.685-3.381-12.02-8.021-17.825C265.39,98.032,264.089,97.77,262.822,98.825z"/>
		<path fill="#104051" d="M238.481,98.876c-1.278-1.119-2.542-0.813-3.56,0.411c-4.895,5.885-8.378,12.367-8.471,20.264
			c-0.026,5.896,1.922,11.069,5.658,15.579c1.289,1.557,2.662,1.77,3.879,0.76c1.142-0.947,1.096-2.511-0.116-3.955
			c-4.249-5.062-5.464-10.812-3.863-17.181c1.168-4.651,3.663-8.593,6.647-12.27C239.653,101.256,239.727,99.969,238.481,98.876z"/>
	</g>
</g>
<g id="Layer_3" display="none">
	<g display="inline">
		<path fill="#FFFFFF" d="M251.83,183.744c1.822-3.094,4.276-5.292,7.977-5.99c-6.145-1.725-12.24-1.796-18.362,0.022
			c3.746,0.66,6.19,2.893,8.017,6.015C250.354,185.318,250.909,185.306,251.83,183.744z"/>
		<path fill="#FFFFFF" d="M250.604,194.724c-4.297,4.929-9.761,6.144-16.083,5.76c3.352,6.512,9.157,7.52,15.132,7.63
			c6.584,0.121,13.116-0.438,17.207-7.665C260.298,200.922,254.824,199.537,250.604,194.724z"/>
		<path fill="#FFFFFF" d="M223.197,147.125c2.03,0.052,3.797-1.665,3.803-3.694c0.006-2.013-1.735-3.693-3.827-3.694
			c-1.88-0.001-3.591,1.766-3.583,3.703C219.598,145.384,221.253,147.075,223.197,147.125z"/>
		<path fill="#FFFFFF" d="M203.568,94.863c-8.038-7.447-17.945-12.444-28.893-16.554c3.02,11.753,8.01,22.064,14.182,30.725
			C193.746,104.324,198.577,99.671,203.568,94.863z"/>
		<path fill="#FFFFFF" d="M228.104,198.19c-7.374-4.869-9.365-16-3.416-23.399c4.287-5.333,6.478-11.386,7.079-18.089
			c0.268-2.987,0.322-5.992-0.718-9.047c-3.776,4.33-7.513,5.456-11.428,3.591c-3.976-1.893-5.512-5.535-4.515-11.117
			c-4.346,0.854-7.979,2.668-11.049,5.589c-5.791,5.507-7.481,12.623-7.54,20.203c-0.082,10.443,2.804,20.184,7.494,29.475
			c4.58,9.073,7.756,18.629,9.126,28.737c0.347,2.564,0.609,5.141,0.928,7.855c5.088-5.141,14.806-22.299,15.82-28.656
			C230.146,201.705,229.339,199.005,228.104,198.19z"/>
		<path fill="#FFFFFF" d="M281.675,143.381c-0.037-1.957-1.771-3.689-3.644-3.642c-2.113,0.052-3.809,1.742-3.767,3.755
			c0.042,2.026,1.841,3.716,3.866,3.631C280.061,147.044,281.711,145.3,281.675,143.381z"/>
		<path fill="#FFFFFF" d="M304.512,162.055c-0.584-6.328-2.662-12.046-7.461-16.483c-3.069-2.839-6.63-4.697-10.893-5.384
			c1.018,5.484-0.539,9.17-4.521,11.062c-3.912,1.859-7.631,0.735-11.624-3.819c-0.243,1.886-0.561,3.341-0.597,4.804
			c-0.21,8.336,1.874,15.885,7.154,22.573c5.746,7.277,4.3,17.753-2.821,22.802c-1.984,1.407-2.946,4.556-2.101,6.899
			c3.389,9.385,8.11,18.046,14.155,25.984c0.383,0.502,0.851,0.938,1.444,1.585c0.262-2.595,0.423-4.882,0.729-7.15
			c1.497-11.067,5.196-21.406,10.132-31.389C303,183.643,305.536,173.177,304.512,162.055z"/>
		<path fill="#FFFFFF" d="M328.501,66.593c-6.979,6.336-15.372,8.641-24.104,9.926c-7.96,1.171-14.567,4.495-18.71,11.547
			c-1.979,3.371-4.69,5.561-8.246,6.432c-4.922,1.207-9.954,2.016-14.975,2.743c-3.059,0.443-6.186,0.411-9.394,0.599
			c0,0.89,0,1.629,0,2.368c0,10.2,0.021,20.399-0.035,30.599c-0.006,0.866-0.292,1.962-0.867,2.521
			c-0.483,0.471-1.896,0.707-2.33,0.352c-0.766-0.628-1.539-1.779-1.549-2.72c-0.106-10.334-0.066-20.67-0.067-31.006
			c0-0.734,0-1.469,0-2.391c-2.075-0.101-3.969-0.161-5.857-0.291c-6.514-0.447-13.012-1.046-19.241-3.175
			c-3.432-1.172-6.887-2.403-7.806-6.604c-0.067-0.307-0.36-0.569-0.561-0.843c-3.972-5.407-9.275-8.67-15.891-9.74
			c-9.37-1.516-18.552-3.49-26.137-10.324c0.147,1.512,0.307,2.693,0.368,3.88c0.083,1.595,0.833,2.321,2.386,2.961
			c5.822,2.399,11.653,4.837,17.25,7.711c6.125,3.145,11.682,7.2,16.352,12.345c1.631,1.796,1.54,3.098-0.23,4.456
			c-10.344,7.936-18.591,17.639-24.612,29.214c-4.572,8.79-8.324,17.933-9.023,27.888c-1.211,17.23,3.689,32.521,15.219,45.662
			c4.6,5.243,8.644,10.986,12.785,16.615c1.786,2.428,3.179,5.145,4.75,7.73c0.215-0.737,0.164-1.387,0.054-2.027
			c-1.616-9.436-4.927-18.269-9.107-26.864c-5.838-12.006-9.029-24.614-6.57-38.043c2.038-11.125,8.291-18.879,19.346-22.221
			c4.799-1.449,9.803-1.994,14.64-0.467c6.186,1.953,10.075,8.248,10.387,15.852c0.404,9.839-1.87,18.802-8.168,26.625
			c-3.045,3.783-3.357,8.143-1.064,12.419c2.247,4.191,6.183,5.489,10.681,5.309c4.705-0.188,8.464-2.668,9.585-6.046
			c-0.917-1.188-1.883-2.237-2.612-3.431c-1.168-1.913-2.601-3.106-4.98-3.354c-3.314-0.344-4.975-2.917-4.211-6.124
			c0.515-2.162,2.181-3.215,4.134-3.821c5.227-1.62,10.598-1.572,15.948-1c2.256,0.241,4.541,0.852,6.641,1.713
			c2.283,0.936,3.068,2.9,2.683,5.376c-0.331,2.125-1.562,3.585-3.7,3.742c-2.928,0.215-4.744,1.687-5.945,4.222
			c-0.253,0.533-0.678,1.083-1.17,1.385c-1.512,0.927-1.139,1.948-0.261,3.003c3.43,4.122,7.905,4.976,12.888,3.946
			c4.224-0.873,7.184-4.119,7.876-8.586c0.554-3.567-0.599-6.677-2.802-9.473c-6.797-8.626-8.777-18.497-7.262-29.166
			c0.932-6.545,5.809-12.321,11.326-13.016c9.963-1.254,18.898,1.054,25.879,8.777c5.229,5.785,7.16,12.861,7.467,20.416
			c0.46,11.373-2.617,21.946-7.319,32.219c-2.839,6.203-5.155,12.66-7.416,19.104c-1.052,3.001-1.415,6.246-2.09,9.38
			c0.165,0.049,0.329,0.098,0.495,0.147c1.201-2.021,2.231-4.167,3.631-6.04c5.242-7.009,10.517-13.997,15.939-20.867
			c11.647-14.757,15.953-31.454,11.98-49.725c-4.503-20.714-15.722-37.476-32.484-50.489c-1.651-1.282-1.847-2.559-0.471-4.152
			c1.021-1.179,2.135-2.29,3.298-3.33c8.222-7.356,17.783-12.482,28.117-16.041c3.649-1.256,5.363-3.05,5.166-6.782
			C328.49,67.386,328.501,67.145,328.501,66.593z M238.691,102.837c-2.975,3.664-5.46,7.592-6.625,12.228
			c-1.595,6.348-0.384,12.079,3.85,17.124c1.208,1.439,1.254,2.998,0.116,3.941c-1.213,1.006-2.582,0.794-3.866-0.757
			c-3.723-4.494-5.665-9.65-5.639-15.526c0.092-7.871,3.563-14.331,8.442-20.196c1.015-1.22,2.274-1.525,3.548-0.409
			C239.759,100.33,239.685,101.613,238.691,102.837z M268.932,135.573c-1.07,1.266-2.422,1.676-3.719,0.499
			c-1.264-1.147-1.051-2.497,0.028-3.778c5.567-6.613,5.907-13.897,2.403-21.461c-1.238-2.676-3.064-5.095-4.747-7.547
			c-1.228-1.79-1.364-3.058-0.12-4.096c1.262-1.052,2.559-0.792,3.959,0.961c4.623,5.786,7.969,12.101,7.994,17.766
			C274.735,125.853,272.751,131.055,268.932,135.573z"/>
		<path fill="#FFFFFF" d="M312.396,109.064c6.183-8.765,11.243-19.037,14.21-30.751c-10.9,4.049-20.785,9.043-28.867,16.471
			C302.67,99.589,307.533,104.327,312.396,109.064z"/>
		<path d="M331.098,35.85c-0.617-2.236-1.754-3.11-3.388-2.503c-1.823,0.677-1.646,2.115-1.373,3.725
			c0.913,5.405,1.581,10.854,2.56,16.246c0.803,4.426-1.383,7.435-4.343,10.111c-4.636,4.19-10.381,6.038-16.32,7.371
			c-2.776,0.623-5.595,1.05-8.383,1.624c-6.645,1.369-12.044,4.787-16.319,10.024c-0.549,0.673-1.09,1.354-1.666,2.068
			c-3.098-8.607-5.893-17.198-9.273-25.551c-3.918-9.678-8.238-19.2-12.622-28.679c-1.47-3.179-3.585-6.077-5.562-8.998
			c-1.883-2.782-4.256-5.089-7.448-6.393c-1.088,0-1.206-1.061-2.294-1.061c-6.03-1.728-6.687-3.015-11.917-4.583
			c-1.35-0.405-7.667-3.133-10.1-3.724c-1.483-0.36-4.4-1.526-4.4-1.526s-2.083,1.333-0.75,2.75c0.42,0.396,1.725,2.186,2.217,2.447
			c3.388,1.803,7.533,9.303,10.689,11.287c0.938,0.59,3.406,5.379,4.344,4.766c0.143,1.383-1.327,2.117,0.114,4.043
			c0.749-0.67-0.616,2.761,0.356,1.891c-0.241,0.978-0.356,1.583-0.539,2.166c-2.046,6.541-3.992,13.117-6.187,19.608
			c-2.306,6.816-3.859,13.926-7.615,20.204c-0.29,0.485-0.489,1.212-0.357,1.732c0.786,3.109-1.013,5.628-1.541,7.975
			c-1.632-1.403-3.357-2.88-5.074-4.366c-4.798-4.152-10.53-5.971-16.688-6.892c-5.312-0.795-10.531-2.083-15.3-4.653
			c-1.955-1.054-3.844-2.341-5.496-3.821c-2.873-2.572-4.824-5.583-4.056-9.818c0.978-5.393,1.646-10.841,2.56-16.246
			c0.272-1.61,0.453-3.047-1.371-3.726c-1.633-0.608-2.906,0.24-3.364,2.505c-0.897,4.444-1.597,8.927-2.386,13.393
			c-0.116,0.658-0.271,1.309-0.409,1.963c0,4.352,0,8.704,0,13.056c0.488,3.606,0.826,7.24,1.491,10.813
			c2.533,13.631,8.284,25.894,16.219,37.169c0.977,1.388,0.949,2.281,0.036,3.684c-6.714,10.304-12.107,21.241-14.056,33.495
			c-3.028,19.037,0.982,36.459,13.299,51.519c6.713,8.208,13.676,16.214,18.605,25.667c2.05,3.931,3.49,8.18,5.207,12.284
			c2.312,0,4.625,0,6.937,0c3.2-4.373,6.717-8.554,9.521-13.168c3.434-5.652,6.271-11.666,9.257-17.314
			c11.077,6.508,22.36,6.486,33.294,0.092c3.66,6.584,7.267,13.479,11.279,20.129c2.193,3.634,5.072,6.854,7.643,10.261
			c2.312,0,4.624,0,6.937,0c2.256-5.047,3.963-10.441,6.895-15.06c4.421-6.965,9.305-13.725,14.691-19.969
			c10.408-12.068,15.834-25.865,16.488-41.71c0.473-11.478-2.501-22.158-7.335-32.37c-2.284-4.826-5.083-9.418-7.817-14.017
			c-0.774-1.303-0.852-2.092,0.047-3.36c8.009-11.313,13.787-23.634,16.342-37.332c0.666-3.573,1.002-7.208,1.49-10.813
			c0-4.352,0-8.704,0-13.056c-0.551-3.607-1.062-7.22-1.671-10.817C331.938,38.859,331.513,37.351,331.098,35.85z M174.675,78.309
			c10.948,4.11,20.855,9.107,28.893,16.554c-4.992,4.808-9.822,9.461-14.711,14.171C182.685,100.373,177.695,90.062,174.675,78.309z
			 M229.886,203.332c-1.014,6.357-10.731,23.515-15.82,28.656c-0.319-2.714-0.581-5.291-0.928-7.855
			c-1.37-10.108-4.546-19.664-9.126-28.737c-4.69-9.291-7.576-19.032-7.494-29.475c0.059-7.58,1.749-14.696,7.54-20.203
			c3.07-2.921,6.703-4.736,11.049-5.589c-0.998,5.582,0.539,9.224,4.515,11.117c3.916,1.865,7.652,0.739,11.428-3.591
			c1.041,3.055,0.986,6.06,0.718,9.047c-0.601,6.703-2.792,12.756-7.079,18.089c-5.95,7.399-3.958,18.53,3.416,23.399
			C229.339,199.005,230.146,201.705,229.886,203.332z M219.591,143.439c-0.008-1.938,1.703-3.705,3.583-3.703
			c2.092,0.001,3.833,1.682,3.827,3.694c-0.006,2.029-1.773,3.746-3.803,3.694C221.253,147.075,219.598,145.384,219.591,143.439z
			 M249.652,208.115c-5.975-0.11-11.781-1.118-15.132-7.63c6.322,0.383,11.787-0.832,16.083-5.76
			c4.221,4.812,9.694,6.198,16.256,5.726C262.769,207.677,256.236,208.236,249.652,208.115z M249.461,183.791
			c-1.826-3.122-4.271-5.354-8.017-6.015c6.122-1.818,12.218-1.748,18.362-0.022c-3.7,0.698-6.154,2.896-7.977,5.99
			C250.909,185.306,250.354,185.318,249.461,183.791z M287.248,232.078c-0.594-0.647-1.062-1.083-1.444-1.585
			c-6.045-7.938-10.767-16.599-14.155-25.984c-0.846-2.343,0.116-5.493,2.101-6.899c7.121-5.049,8.567-15.525,2.821-22.802
			c-5.28-6.688-7.364-14.237-7.154-22.573c0.036-1.462,0.354-2.918,0.597-4.804c3.993,4.555,7.712,5.678,11.624,3.819
			c3.982-1.893,5.539-5.578,4.521-11.062c4.263,0.688,7.823,2.545,10.893,5.384c4.799,4.437,6.877,10.155,7.461,16.483
			c1.024,11.123-1.512,21.588-6.402,31.483c-4.936,9.983-8.635,20.322-10.132,31.389
			C287.671,227.196,287.51,229.483,287.248,232.078z M274.265,143.494c-0.042-2.013,1.653-3.703,3.767-3.755
			c1.873-0.047,3.606,1.686,3.644,3.642c0.036,1.919-1.614,3.663-3.544,3.744C276.105,147.209,274.307,145.52,274.265,143.494z
			 M312.396,109.064c-4.862-4.738-9.726-9.476-14.657-14.28c8.082-7.428,17.967-12.422,28.867-16.471
			C323.639,90.028,318.578,100.3,312.396,109.064z M323.337,74.407c-10.334,3.559-19.896,8.684-28.117,16.041
			c-1.163,1.04-2.277,2.15-3.298,3.33c-1.376,1.593-1.181,2.87,0.471,4.152c16.763,13.013,27.981,29.774,32.484,50.489
			c3.973,18.271-0.333,34.968-11.98,49.725c-5.423,6.87-10.697,13.857-15.939,20.867c-1.399,1.872-2.43,4.019-3.631,6.04
			c-0.166-0.049-0.33-0.098-0.495-0.147c0.675-3.134,1.038-6.379,2.09-9.38c2.261-6.445,4.577-12.902,7.416-19.104
			c4.702-10.272,7.779-20.846,7.319-32.219c-0.307-7.555-2.238-14.631-7.467-20.416c-6.98-7.723-15.916-10.032-25.879-8.777
			c-5.518,0.695-10.395,6.471-11.326,13.016c-1.516,10.668,0.465,20.539,7.262,29.166c2.203,2.796,3.355,5.906,2.802,9.473
			c-0.692,4.468-3.652,7.714-7.876,8.586c-4.982,1.029-9.458,0.176-12.888-3.946c-0.878-1.055-1.251-2.076,0.261-3.003
			c0.492-0.303,0.917-0.853,1.17-1.385c1.201-2.536,3.018-4.007,5.945-4.222c2.138-0.157,3.369-1.618,3.7-3.742
			c0.386-2.476-0.399-4.44-2.683-5.376c-2.1-0.862-4.385-1.473-6.641-1.713c-5.35-0.571-10.721-0.619-15.948,1
			c-1.953,0.605-3.619,1.659-4.134,3.821c-0.764,3.207,0.897,5.779,4.211,6.124c2.379,0.248,3.812,1.441,4.98,3.354
			c0.729,1.193,1.695,2.243,2.612,3.431c-1.121,3.378-4.88,5.858-9.585,6.046c-4.498,0.18-8.434-1.118-10.681-5.309
			c-2.292-4.276-1.981-8.637,1.064-12.419c6.298-7.823,8.572-16.786,8.168-26.625c-0.312-7.604-4.202-13.899-10.387-15.852
			c-4.837-1.527-9.841-0.982-14.64,0.467c-11.055,3.341-17.309,11.095-19.346,22.221c-2.459,13.429,0.731,26.037,6.57,38.043
			c4.18,8.595,7.492,17.428,9.107,26.864c0.11,0.641,0.161,1.291-0.054,2.027c-1.572-2.586-2.964-5.303-4.75-7.73
			c-4.142-5.629-8.185-11.372-12.785-16.615c-11.53-13.141-16.43-28.432-15.219-45.662c0.699-9.955,4.451-19.098,9.023-27.888
			c6.021-11.575,14.268-21.279,24.612-29.214c1.77-1.358,1.861-2.66,0.23-4.456c-4.67-5.145-10.228-9.2-16.352-12.345
			c-5.596-2.874-11.427-5.312-17.25-7.711c-1.553-0.64-2.303-1.367-2.386-2.961c-0.061-1.187-0.221-2.369-0.368-3.88
			c7.585,6.834,16.767,8.808,26.137,10.324c6.616,1.07,11.919,4.333,15.891,9.74c0.201,0.274,0.494,0.536,0.561,0.843
			c0.918,4.201,4.374,5.432,7.806,6.604c6.229,2.128,12.728,2.728,19.241,3.175c1.888,0.13,3.782,0.19,5.857,0.291
			c0,0.922,0,1.657,0,2.391c0.001,10.335-0.039,20.672,0.067,31.006c0.01,0.94,0.783,2.091,1.549,2.72
			c0.434,0.355,1.847,0.119,2.33-0.352c0.575-0.559,0.861-1.655,0.867-2.521c0.057-10.199,0.035-20.399,0.035-30.599
			c0-0.739,0-1.478,0-2.368c3.208-0.188,6.335-0.156,9.394-0.599c5.021-0.727,10.053-1.536,14.975-2.743
			c3.556-0.872,6.267-3.061,8.246-6.432c4.143-7.052,10.75-10.375,18.71-11.547c8.732-1.285,17.126-3.589,24.104-9.926
			c0,0.551-0.011,0.792,0.002,1.032C328.7,71.357,326.986,73.151,323.337,74.407z"/>
		<path d="M262.777,99.19c-1.244,1.038-1.107,2.306,0.12,4.096c1.683,2.452,3.509,4.871,4.747,7.547
			c3.504,7.564,3.164,14.848-2.403,21.461c-1.079,1.281-1.292,2.631-0.028,3.778c1.297,1.177,2.648,0.767,3.719-0.499
			c3.819-4.518,5.804-9.72,5.799-17.656c-0.025-5.666-3.371-11.98-7.994-17.766C265.336,98.398,264.039,98.138,262.777,99.19z"/>
		<path d="M238.517,99.241c-1.273-1.116-2.533-0.811-3.548,0.409c-4.878,5.865-8.35,12.325-8.442,20.196
			c-0.026,5.876,1.916,11.032,5.639,15.526c1.285,1.551,2.653,1.763,3.866,0.757c1.138-0.943,1.093-2.502-0.116-3.941
			c-4.234-5.045-5.445-10.776-3.85-17.124c1.165-4.636,3.65-8.564,6.625-12.228C239.685,101.613,239.759,100.33,238.517,99.241z"/>
	</g>
</g>
<g id="Layer_17">
</g>
<g id="Layer_25">
</g>
<g id="Layer_10">
</g>
<g id="Layer_5">
	<path fill="#231F20" stroke="#231F20" stroke-width="2" stroke-miterlimit="10" d="M379.315,87.302c0,0,1.669,3.692,0.479,7.116
		c-1.189,3.425-3.333,5.792-4.787,5.286c-1.456-0.506-1.67-3.692-0.479-7.116C375.717,89.163,379.315,87.302,379.315,87.302z"/>
	<path fill="#231F20" stroke="#231F20" stroke-width="2" stroke-miterlimit="10" d="M369.461,82.845c0,0,1.67,3.693,0.479,7.118
		c-1.188,3.423-3.334,5.79-4.788,5.284c-1.455-0.505-1.67-3.692-0.48-7.116C365.861,84.707,369.461,82.845,369.461,82.845z"/>
	<path fill="#231F20" stroke="#231F20" stroke-width="2" stroke-miterlimit="10" d="M358.281,82.688c0,0,1.67,3.693,0.479,7.117
		s-3.335,5.79-4.79,5.285c-1.454-0.506-1.669-3.692-0.479-7.116C354.682,84.549,358.281,82.688,358.281,82.688z"/>
</g>
<g id="Layer_24">
</g>
<g id="Layer_14">
</g>
<g id="Layer_11">
</g>
<g id="Layer_23">
</g>
<g id="Layer_15">
	
		<image overflow="visible" width="1440" height="900" xlink:href="A99B8B298762D5E7.jpg"  transform="matrix(0.5179 0 0 0.5179 650.25 -400.9873)">
	</image>
	
		<image overflow="visible" width="1440" height="900" xlink:href="A99B8B298762D5E5.jpg"  transform="matrix(0.5179 0 0 0.5179 654.25 82.1064)">
	</image>
	
		<image overflow="visible" width="1440" height="900" xlink:href="A99B8B298762D5EB.jpg"  transform="matrix(0.5099 0 0 0.5099 660 563.2002)">
	</image>
	
		<image overflow="visible" width="1440" height="900" xlink:href="A99B8B298762D5ED.jpg"  transform="matrix(0.5179 0 0 0.5179 1422.25 564.0127)">
	</image>
	<rect x="-121" y="-5" fill="#E5F3FD" stroke="#000000" stroke-miterlimit="10" width="32" height="32"/>
	<rect x="-122" y="316" fill="#3EC173" stroke="#000000" stroke-miterlimit="10" width="32" height="32"/>
	<rect x="-169" y="138" fill="#C8EDD7" stroke="#000000" stroke-miterlimit="10" width="32" height="32"/>
	<rect x="-173" y="-4" fill="#7C7C7C" stroke="#000000" stroke-miterlimit="10" width="32" height="32"/>
	<rect x="-123" y="137" fill="#B2DF8A" stroke="#000000" stroke-miterlimit="10" width="32" height="32"/>
	<rect x="-124" y="89" fill="#6A3D9A" stroke="#000000" stroke-miterlimit="10" width="32" height="32"/>
	<rect x="-170" y="92" fill="#FF00CC" stroke="#020202" stroke-miterlimit="10" width="32" height="32"/>
	<rect x="-124" y="184" fill="#FFCC00" stroke="#000000" stroke-miterlimit="10" width="32" height="32"/>
	<rect x="-122" y="228" fill="#00CCFF" stroke="#000000" stroke-miterlimit="10" width="32" height="32"/>
	<rect x="-121" y="270" fill="#00FFCC" stroke="#000000" stroke-miterlimit="10" width="32" height="32"/>
	<path fill="#C8EDD7" stroke="#000000" stroke-width="2" stroke-miterlimit="10" d="M153.095,157.598c0,6.627-5.373,12-12,12H45.102
		c-6.627,0-12-5.373-12-12V72.103c0-6.627,5.373-12,12-12h95.994c6.627,0,12,5.373,12,12V157.598z"/>
</g>
<g id="Layer_26" display="none">
	<path display="inline" fill="#7C7C7C" stroke="#104051" stroke-width="5" stroke-miterlimit="10" d="M173.25,66.741
		c-0.06-0.021-0.12-0.041-0.18-0.062c-0.85,17.429,13.971,29.602,15.287,45.696c0.783,9.577-5.14,20.042-8.846,28.512
		c-4.711,10.769-5.603,21.048-2.862,32.579c2.688,11.304,8.874,21.146,15.378,30.61c5.593,8.137,8.177,19.131,16.032,25.572
		c6.142,5.035,16.849-4.673,22.944-6.683c9.152-3.018,19.087-2.825,28.608-3.165c7.092-0.253,13.075,0.896,18.921,4.979
		c5.857,4.091,9.479,11.768,16.308,4.571c5.242-5.525,8.388-13.216,12.345-19.64c8.645-14.04,19.34-27.216,20.282-44.424
		c0.71-12.959-2.522-24.354-8.99-35.458c-6.03-10.354-10.058-17.872-2.095-28.373c9.031-11.91,12.402-18.719,11.316-34.24
		c-15.767,3.183-28.676,8.28-42.158,17.003c-9.343,6.045-16.085,7.611-26.857,7.816c-15.168,0.289-25.466,1.908-39.586-5.57
		C204.095,78.52,189.341,72.229,173.25,66.741z"/>
</g>
<g id="Layer_27">
	<path fill="#7C7C7C" d="M233,97l6,0.333l7.977,0.265L249,97.667l4.667-0.333l13.667-0.667l8.334,4.667L289,125.667l13,7.667
		l9.333,21.333c0,0,3,11,3,12.667S309,185.667,309,185.667l-13,30l-2.667,10L290.5,232l-2.5,0.667L275.333,211L272,203h-44
		l-14,28.333l-3.333,0.333l-4.333-9.333l-15-29.333L180,158.667l15-31.333l10.333-13.667L233,97z"/>
	<polygon fill="#7C7C7C" points="173,70 174.667,79 188.667,108.334 194.333,118.667 216.667,103 210.667,89 	"/>
	<polygon fill="#7C7C7C" points="328,69.334 326.667,78.667 312.667,108.667 307.333,117 284.333,95.334 299,82.334 311.333,77.667 
			"/>
</g>
<g id="Layer_34">
	<circle fill="#393939" cx="223.176" cy="192.18" r="14.249"/>
</g>
<g id="Layer_29">
	<path fill="#7C7C7C" stroke="#104051" stroke-width="5" stroke-miterlimit="10" d="M231.091,399.086
		c17.347-20.114,10.01-45.359,7.117-69.079c-2.61-21.397-6.882-42.284-13.004-62.952c-5.306-17.914-25.889-37.412-24.491-56.382
		c1.077-14.616,17.095-34.161,33.418-26.939c20.967,9.28,25.643,39.947,27.861,59.824c3.362,30.126,3.425,60.562,8.198,90.539
		c3.043,19.107,11.685,49.921-7.73,63.482"/>
</g>
<g id="Layer_31">
	<circle fill="#393939" cx="280.853" cy="127.844" r="14.249"/>
	<circle fill="#393939" cx="197.607" cy="95.595" r="7.5"/>
	<path fill="#393939" d="M222.675,271.428c0,10.354-8.394,18.749-18.749,18.749C193.571,290.176,188,282.355,188,272
		c0-10.355,5.571-19.322,15.926-19.322C214.281,252.678,222.675,261.072,222.675,271.428z"/>
	<circle fill="#393939" cx="303.352" cy="327.333" r="14.249"/>
	<circle fill="#393939" cx="207.356" cy="385.83" r="11.249"/>
</g>
<g id="Layer_32">
	<polygon fill="none" stroke="#FFCC00" stroke-miterlimit="10" points="243,70 236.79,64.919 229.083,67.154 231.997,59.678 
		227.489,53.04 235.5,53.5 240.42,47.162 242.458,54.923 250.007,57.644 243.255,61.98 	"/>
</g>
</svg>
