<?xml version="1.0" encoding="utf-8"?>
<!-- Generator: Adobe Illustrator 16.0.0, SVG Export Plug-In . SVG Version: 6.00 Build 0)  -->
<!DOCTYPE svg PUBLIC "-//W3C//DTD SVG 1.1//EN" "http://www.w3.org/Graphics/SVG/1.1/DTD/svg11.dtd">
<svg version="1.1" xmlns="http://www.w3.org/2000/svg" xmlns:xlink="http://www.w3.org/1999/xlink" x="0px" y="0px" width="35px"
	 height="35px" viewBox="0 0 35 35" enable-background="new 0 0 35 35" xml:space="preserve">
<g id="Layer_2">
</g>
<g id="Layer_1">
	<path fill="#FFFFFF" d="M20.775,20.795c0,0.736-0.596,1.334-1.332,1.334c-0.74,0-1.337-0.598-1.337-1.334
		c0-0.738,0.597-1.336,1.337-1.336C20.18,19.459,20.775,20.057,20.775,20.795z"/>
	<circle fill="#FFFFFF" cx="15.84" cy="23.86" r="1.468"/>
	<circle fill="none" stroke="#FFFFFF" stroke-width="0.5" stroke-miterlimit="10" cx="18.573" cy="10.802" r="0.734"/>
	<circle fill="none" stroke="#FFFFFF" stroke-width="0.5" stroke-miterlimit="10" cx="17.441" cy="16.39" r="0.934"/>
	<ellipse fill="none" stroke="#FFFFFF" stroke-width="0.5" stroke-miterlimit="10" cx="20.132" cy="1.806" rx="0.833" ry="0.771"/>
	<circle fill="none" stroke="#FFFFFF" stroke-width="0.5" stroke-miterlimit="10" cx="15.915" cy="5.447" r="0.667"/>
	<path fill="#FFFFFF" d="M17.04,26.53c1.785,0.457-1.241,6.539-2.936,6.539c-1.695,0-6.375-1.814-5.337-3.335
		c0.757-1.109,0.757-2.808,1.919-4.686C11.579,23.608,14.437,25.864,17.04,26.53z"/>
	<path fill="#FFFFFF" d="M26.713,31.067c0,1.477-1.335,2.471-3.536,2.002c-2.163-0.459-14.209-3.536-13.675-5.138
		c0.466-1.398,13.13-2.499,15.011-1.331C26.473,27.815,26.713,29.593,26.713,31.067z"/>
	<path fill="#FFFFFF" d="M25.047,33.069c0,1.105-14.16,0.634-15.013,0.401c-0.552-0.152-1.668-1.432-1.668-2.538
		c0-1.104,1.078-3.827,1.962-3.827S25.047,31.965,25.047,33.069z"/>
	<path fill="none" stroke="#FFFFFF" stroke-width="0.75" stroke-miterlimit="10" d="M26.644,30.681c0,3.953-4.963,2.776-8.92,2.776
		c-3.955,0-9.357,1.177-9.357-2.776c0-2.117,2.72-7.684,6.551-12.472l0.042-9.542c0,0,2.154-0.26,2.765-0.26
		c0.662,0,2.777,0.218,2.777,0.218L20.459,18C20.459,18,26.644,27.708,26.644,30.681z"/>
</g>
</svg>
