<?xml version="1.0" encoding="utf-8"?>
<!-- Generator: Adobe Illustrator 16.0.0, SVG Export Plug-In . SVG Version: 6.00 Build 0)  -->
<!DOCTYPE svg PUBLIC "-//W3C//DTD SVG 1.1//EN" "http://www.w3.org/Graphics/SVG/1.1/DTD/svg11.dtd">
<svg version="1.1" xmlns="http://www.w3.org/2000/svg" xmlns:xlink="http://www.w3.org/1999/xlink" x="0px" y="0px" width="264px"
	 height="444px" viewBox="0 0 264 444" enable-background="new 0 0 264 444" xml:space="preserve">
<g id="Layer_21" display="none">
	<rect x="-178.25" y="-27" display="inline" fill="#E5F3FD" stroke="#000000" stroke-miterlimit="10" width="605" height="510"/>
</g>
<g id="Layer_7">
</g>
<g id="Layer_26">
	<path fill="#7C7C7C" stroke="#104051" stroke-width="5" stroke-miterlimit="10" d="M77.439,268.871
		c-9.334,26.021-27.904,43.168-41.475,38.3s-17.006-29.91-7.671-55.931c9.335-26.021,26.628-39.613,40.2-34.745
		C82.064,221.364,86.774,242.85,77.439,268.871z"/>
	<path fill="#7C7C7C" stroke="#104051" stroke-width="5" stroke-miterlimit="10" d="M217.105,261.871
		c-9.334,26.021-27.904,43.168-41.475,38.3c-13.572-4.868-17.006-29.91-7.672-55.931c9.335-26.021,26.629-39.613,40.199-34.745
		C221.73,214.364,226.439,235.85,217.105,261.871z"/>
</g>
<g id="Layer_12">
</g>
<g id="Layer_13">
</g>
<g id="Layer_8">
	<path fill="#7C7C7C" stroke="#104051" stroke-width="5" stroke-miterlimit="10" d="M203,402.5c0,0-5.715-1.656-5.957-1.901
		c-6.429-6.514,6.027-22.434,6.027-34.03c0-30.009-11.881-54.337-26.535-54.337S150,336.56,150,366.568
		c0,22.58,7.489,44.621,17.107,52.982c0.335,3.098-6.44,8.116-6.44,8.116L172,429l-8.259,5.076c0,0,7.874,1.983,14.256,1.966
		c1.874-0.005,3.62-2.011,4.999-2.016c3.841-0.014,7.741,3.318,9.803,3.976c4.701,1.498,14.154-0.547,17.328-1.535
		c9.524-2.967,12.373-7.467,11.207-17.006C220.27,410.749,215.555,404.046,203,402.5z"/>
	<path fill="#7C7C7C" stroke="#104051" stroke-width="5" stroke-miterlimit="10" d="M36.58,401.5c0,0,5.715-1.656,5.957-1.901
		c6.429-6.514-6.027-22.434-6.027-34.03c0-30.009,11.881-54.337,26.535-54.337S89.58,335.56,89.58,365.568
		c0,22.58-7.489,44.621-17.107,52.982c-0.335,3.098,6.44,8.116,6.44,8.116L67.58,428l8.259,5.076c0,0-7.874,1.983-14.256,1.966
		c-1.874-0.005-3.62-2.011-4.999-2.016c-3.841-0.014-7.741,3.318-9.803,3.976c-4.701,1.498-14.154-0.547-17.328-1.535
		C19.929,432.5,17.08,428,18.246,418.461C19.311,409.749,24.025,403.046,36.58,401.5z"/>
</g>
<g id="Layer_9">
</g>
<g id="Layer_2">
	<path fill="#7C7C7C" stroke="#104051" stroke-width="5" stroke-miterlimit="10" d="M188,300.5c0,73.178-30.939,132.5-69.105,132.5
		c-38.167,0-69.105-59.322-69.105-132.5S80.728,178,118.895,178C157.061,178,188,227.322,188,300.5z"/>
</g>
<g id="Layer_6">
	<path fill="#393939" d="M70.667,236.667c0,3.129-2.545,5.44-5.667,5.667c-3.051,0.221-4.834-0.833-4.834-0.833
		s0.735-2.729,1.5-4.833C63,233,62.621,231.25,65.75,231.25C68.88,231.25,70.667,233.537,70.667,236.667z"/>
	<circle fill="#393939" cx="149" cy="251" r="9.667"/>
	<circle fill="#393939" cx="166" cy="373.667" r="5.667"/>
	<path fill="#393939" d="M91,353.668c0,9.387-7.611,16.998-17,16.998c-9.388,0-14.25-6.416-16-17.416
		c-1.476-9.274,6.611-16.584,16-16.584C83.388,336.666,91,344.277,91,353.668z"/>
	<path fill="#393939" d="M102,412c0,4.603-3.977,11.885-7.75,9.25c-4.417-3.084-6.5-5.25-10-9.75
		c-2.825-3.632,4.815-7.833,9.417-7.833C98.27,403.667,102,407.398,102,412z"/>
</g>
<g id="Layer_22">
	<ellipse fill="#FFFFFF" cx="119" cy="321" rx="42" ry="90"/>
</g>
<g id="Layer_19">
</g>
<g id="Layer_16">
	<path fill="#7C7C7C" d="M37.5,54l3,9.5l11,4.5L62,73l11.5,10l-1,3.5l-11,11l-8.5,10L43.5,125l-4.675,13.229L40,155l4.5,20l7.5,10.5
		l7.5,11.5l8,9.5L76,219l2-5.5L73.5,197L67,178.5l-4.5-19l0.5-20l9-8l8.5-4L91,126l7,2.5l4.5,8.5l-1.5,13.5l-5,12l-4.5,6.5l-1,7.5
		l6,8.5l8,1.5l7-1l6-4l4.5,3.5l10,2l7-2.5l5-6.5l0.5-7l-3-9.5l-6.5-12l-0.5-15l3.5-6.5l11-3l14.5,5l7.5,8l2.5,9l1,13l-7,25
		c0,0-6,10-5.5,12.5s-5.892,16.485-5.892,16.485L158.5,221l10.5-11.5l5-11l10-11l5.5-9l7-27l-1.5-21L183.5,109L165,89l-3-5
		l15.5-12.5l13-5l4.5-2l2.875-8.25L199,49l-9,9.5l-20.5,4l-11,4.5l-5.852,5.025L151,76l-2.5,2l-5,2.5L126,81l-12.5,3.5l-12-2L93,79
		l-7.5-3l-6-6L74,65l-8-2.5L55.5,61L37.5,54z"/>
	<polygon fill="#7C7C7C" stroke="#000000" stroke-miterlimit="10" points="100,188 103.5,194.5 109,199 119.5,199.5 125.5,199 
		134,194 136,187 122,185 117.5,181.5 111.5,185.5 104.5,186.5 	"/>
	<polygon fill="#FFFFFF" stroke="#000000" stroke-miterlimit="10" points="40.5,63.5 42,75 46.5,85 54,96.5 56.5,101.5 68.5,90 
		73.5,83 70.5,78.5 54,69 	"/>
	<polygon fill="#FFFFFF" stroke="#000000" stroke-miterlimit="10" points="195,64.5 185,68 174.5,74 164.5,81 162,84 170.5,89.5 
		178,99 181,101 184.5,96.5 190.5,86 195.5,74.5 197.5,67.5 	"/>
	<polygon fill="#FFFFFF" stroke="#000000" stroke-miterlimit="10" points="80.5,127.5 70,131.5 66,137 64,142.5 61.5,154.5 
		61.5,163.5 64.5,173.5 69,183.5 74,194 78,209 78.5,222 79,226 85,221.5 90.5,212 96.5,199 99.5,193 96.5,185 91,172 96,162.5 
		101,150.5 101.5,144 102.5,137 98,128.5 83,125 	"/>
	<polygon fill="#FFFFFF" stroke="#000000" stroke-miterlimit="10" points="137,131.5 135,140.5 135,149.5 141.5,161.5 144.5,171 
		144,178 138,186.5 137.5,193 141,205.5 148.5,215 154.5,224.5 158.5,225 158,213 162,197.5 165.5,188 172.5,175 174.5,160 
		175.5,145 170.367,132.568 155,126.5 146,125.5 138,128 	"/>
</g>
<g id="Layer_20">
	<polygon fill="#FFCC00" points="111.5,163.5 118,163.5 125,164 127.841,166.654 129.5,168.5 123.5,170 119.839,172.664 
		118.5,177.5 114,172.5 108.5,169 105.5,167 	"/>
</g>
<g id="Layer_18">
	<g>
		<path fill="#104051" d="M199.374,24.273c-0.62-2.245-1.762-3.121-3.4-2.512c-1.829,0.679-1.65,2.122-1.378,3.737
			c0.919,5.423,1.587,10.891,2.569,16.3c0.807,4.441-1.388,7.46-4.358,10.145c-4.65,4.204-10.414,6.059-16.373,7.396
			c-2.788,0.625-5.615,1.053-8.412,1.629c-6.667,1.374-12.085,4.803-16.373,10.058c-0.552,0.676-1.096,1.358-1.674,2.076
			c-3.108-8.637-5.912-17.256-9.305-25.637c-3.93-9.711-8.265-19.264-12.663-28.775c-1.476-3.19-3.598-6.098-5.581-9.028
			c-1.89-2.791-4.271-5.106-7.473-6.414c-1.091,0-2.184,0-3.275,0c-5.572,0.908-9.971,4.054-14.396,7.285
			c-1.999,1.459-4.452,2.305-6.722,3.382c-0.92,0.436-1.946,0.66-2.835,1.143c-0.547,0.296-0.927,0.9-1.382,1.366
			c0.421,0.398,0.781,0.912,1.274,1.174c3.399,1.809,7.042,2.117,10.725,1.292c1.086-0.243,2.003-1.238,2.944-1.853
			c0.143,1.388-1.924,2.738-0.479,4.672c0.751-0.673,1.39-1.244,2.365-2.117c-0.242,0.981-0.357,1.587-0.541,2.173
			c-2.053,6.563-4.005,13.161-6.208,19.674C94.111,48.278,92,54.75,88.75,62c-0.232,0.518-0.409,1.095-0.5,1.625
			C87.5,68,87.409,69.096,86.88,71.45c-1.637-1.409-3.368-2.89-5.091-4.381c-4.815-4.166-10.566-5.991-16.745-6.916
			c-5.33-0.797-10.566-2.09-15.351-4.668c-1.961-1.057-3.857-2.349-5.515-3.833c-2.882-2.582-4.84-5.602-4.069-9.851
			c0.981-5.411,1.652-10.877,2.569-16.3c0.273-1.615,0.454-3.058-1.375-3.739c-1.64-0.61-2.917,0.24-3.376,2.514
			c-0.901,4.458-1.603,8.957-2.395,13.437c-0.117,0.66-0.273,1.313-0.41,1.969c0,4.367,0,8.734,0,13.101
			c0.49,3.618,0.829,7.264,1.496,10.849c2.542,13.677,8.312,25.981,16.274,37.294c0.98,1.393,0.953,2.289,0.036,3.696
			c-6.737,10.339-12.148,21.313-14.104,33.608c-3.039,19.101,0.985,36.582,13.344,51.692c6.736,8.235,13.722,16.269,18.667,25.752
			c2.057,3.945,3.502,8.208,5.225,12.326c2.32,0,4.64,0,6.959,0c3.211-4.388,6.74-8.583,9.553-13.212
			c3.445-5.671,6.293-11.705,9.289-17.373c11.113,6.531,22.434,6.509,33.407,0.093c3.672,6.606,7.29,13.524,11.316,20.197
			c2.2,3.646,5.089,6.877,7.669,10.295c2.319,0,4.639,0,6.958,0c2.264-5.063,3.979-10.477,6.919-15.11
			c4.436-6.988,9.334-13.771,14.74-20.036c10.444-12.108,15.888-25.952,16.544-41.851c0.475-11.516-2.509-22.233-7.359-32.479
			c-2.293-4.842-5.1-9.45-7.844-14.064c-0.777-1.308-0.853-2.099,0.048-3.373c8.034-11.351,13.833-23.712,16.395-37.457
			c0.669-3.585,1.007-7.231,1.497-10.849c0-4.367,0-8.734,0-13.101c-0.554-3.619-1.066-7.244-1.678-10.853
			C200.214,27.292,199.79,25.779,199.374,24.273z M42.424,66.874c10.985,4.125,20.926,9.138,28.991,16.61
			c-5.009,4.824-9.856,9.493-14.761,14.218C50.461,89.012,45.454,78.667,42.424,66.874z M97.821,192.317
			c-1.018,6.38-10.768,23.594-15.873,28.753c-0.319-2.723-0.583-5.309-0.932-7.882c-1.375-10.141-4.561-19.73-9.156-28.834
			c-4.706-9.322-7.602-19.095-7.52-29.574c0.059-7.605,1.755-14.746,7.564-20.271c3.081-2.931,6.725-4.753,11.087-5.608
			c-1.001,5.601,0.54,9.255,4.529,11.155c3.928,1.871,7.678,0.741,11.467-3.604c1.044,3.066,0.989,6.082,0.721,9.078
			c-0.604,6.725-2.801,12.799-7.104,18.149c-5.969,7.425-3.971,18.593,3.427,23.478C97.272,187.977,98.082,190.685,97.821,192.317z
			 M87.49,132.224c-0.007-1.944,1.709-3.717,3.596-3.715c2.099,0.001,3.845,1.688,3.838,3.707c-0.006,2.036-1.778,3.759-3.815,3.707
			C89.159,135.872,87.498,134.175,87.49,132.224z M117.653,197.117c-5.995-0.111-11.819-1.122-15.182-7.657
			c6.344,0.385,11.826-0.833,16.138-5.779c4.235,4.829,9.729,6.219,16.311,5.746C130.814,196.678,124.26,197.238,117.653,197.117z
			 M117.462,172.711c-1.833-3.132-4.286-5.372-8.044-6.034c6.144-1.825,12.259-1.753,18.423-0.023
			c-3.711,0.7-6.174,2.906-8.002,6.01C118.915,174.231,118.358,174.243,117.462,172.711z M155.376,221.16
			c-0.597-0.649-1.066-1.086-1.449-1.59c-6.066-7.965-10.803-16.655-14.202-26.072c-0.85-2.351,0.116-5.51,2.106-6.922
			c7.146-5.066,8.598-15.577,2.832-22.879c-5.3-6.71-7.39-14.285-7.18-22.648c0.038-1.468,0.355-2.928,0.599-4.82
			c4.008,4.57,7.738,5.697,11.663,3.832c3.997-1.899,5.558-5.597,4.538-11.1c4.275,0.69,7.848,2.554,10.929,5.402
			c4.814,4.451,6.9,10.189,7.484,16.539c1.029,11.16-1.516,21.661-6.423,31.589c-4.952,10.016-8.663,20.39-10.165,31.494
			C155.802,216.262,155.638,218.557,155.376,221.16z M142.349,132.278c-0.042-2.019,1.659-3.715,3.779-3.768
			c1.878-0.047,3.619,1.691,3.654,3.654c0.037,1.926-1.618,3.676-3.554,3.757C144.196,136.007,142.392,134.312,142.349,132.278z
			 M180.608,97.733c-4.879-4.753-9.76-9.507-14.708-14.328c8.11-7.453,18.028-12.463,28.966-16.526
			C191.889,78.632,186.812,88.939,180.608,97.733z M191.587,62.959c-10.37,3.57-19.963,8.713-28.21,16.094
			c-1.17,1.044-2.287,2.158-3.311,3.341c-1.382,1.598-1.186,2.879,0.472,4.166c16.819,13.056,28.076,29.875,32.593,50.659
			c3.984,18.333-0.334,35.086-12.021,49.892c-5.44,6.893-10.733,13.904-15.993,20.937c-1.402,1.878-2.438,4.034-3.643,6.061
			c-0.166-0.049-0.332-0.099-0.498-0.148c0.679-3.145,1.042-6.4,2.099-9.412c2.268-6.466,4.591-12.945,7.439-19.168
			c4.719-10.306,7.807-20.917,7.344-32.327c-0.307-7.58-2.243-14.68-7.491-20.484c-7.004-7.75-15.97-10.065-25.966-8.807
			c-5.537,0.697-10.43,6.494-11.364,13.06c-1.521,10.705,0.466,20.608,7.287,29.263c2.211,2.806,3.365,5.925,2.811,9.505
			c-0.695,4.482-3.666,7.74-7.903,8.616c-4.999,1.033-9.488,0.176-12.931-3.96c-0.88-1.058-1.254-2.083,0.262-3.013
			c0.494-0.304,0.92-0.855,1.174-1.39c1.206-2.544,3.028-4.021,5.965-4.236c2.146-0.157,3.382-1.623,3.712-3.754
			c0.389-2.484-0.401-4.456-2.69-5.395c-2.107-0.864-4.4-1.478-6.664-1.719c-5.368-0.573-10.757-0.622-16.001,1.004
			c-1.96,0.607-3.631,1.664-4.148,3.833c-0.766,3.217,0.9,5.799,4.225,6.144c2.387,0.248,3.825,1.446,4.997,3.366
			c0.731,1.197,1.701,2.25,2.621,3.441c-1.125,3.389-4.896,5.878-9.617,6.067c-4.513,0.181-8.462-1.122-10.716-5.327
			c-2.301-4.291-1.988-8.665,1.067-12.461c6.32-7.85,8.601-16.843,8.196-26.714c-0.313-7.63-4.216-13.946-10.423-15.905
			c-4.854-1.533-9.874-0.986-14.688,0.468c-11.093,3.353-17.368,11.133-19.412,22.296c-2.468,13.474,0.734,26.125,6.592,38.17
			c4.194,8.625,7.517,17.487,9.138,26.955c0.11,0.643,0.162,1.294-0.055,2.034c-1.577-2.595-2.974-5.321-4.766-7.757
			c-4.156-5.648-8.213-11.41-12.829-16.67c-11.568-13.186-16.484-28.528-15.27-45.816c0.702-9.988,4.465-19.163,9.053-27.982
			c6.042-11.614,14.316-21.35,24.695-29.312c1.776-1.362,1.868-2.668,0.232-4.471c-4.686-5.161-10.263-9.231-16.407-12.386
			c-5.615-2.884-11.466-5.329-17.308-7.737c-1.559-0.642-2.311-1.371-2.394-2.971c-0.062-1.191-0.221-2.377-0.37-3.894
			c7.611,6.857,16.823,8.837,26.225,10.358c6.638,1.073,11.959,4.347,15.944,9.773c0.202,0.274,0.495,0.538,0.563,0.845
			c0.922,4.215,4.389,5.45,7.833,6.626c6.25,2.135,12.77,2.737,19.305,3.185c1.895,0.13,3.794,0.191,5.877,0.292
			c0,0.925,0,1.662,0,2.398c0,10.371-0.04,20.742,0.067,31.111c0.011,0.943,0.786,2.098,1.555,2.729
			c0.434,0.355,1.853,0.119,2.338-0.354c0.576-0.561,0.864-1.661,0.868-2.529c0.058-10.233,0.037-20.467,0.037-30.701
			c0-0.741,0-1.482,0-2.376c3.219-0.189,6.355-0.157,9.425-0.601c5.037-0.729,10.086-1.541,15.024-2.751
			c3.566-0.875,6.288-3.071,8.274-6.454c4.157-7.076,10.784-10.411,18.771-11.586c8.764-1.289,17.186-3.601,24.187-9.959
			c0,0.554-0.011,0.795,0.002,1.035C196.968,59.899,195.247,61.698,191.587,62.959z"/>
		<path fill="#104051" d="M130.822,87.825c-1.248,1.041-1.111,2.314,0.121,4.11c1.689,2.46,3.521,4.887,4.763,7.572
			c3.517,7.589,3.175,14.898-2.411,21.534c-1.083,1.286-1.296,2.64-0.029,3.791c1.303,1.181,2.657,0.769,3.732-0.5
			c3.832-4.534,5.822-9.753,5.817-17.716c-0.025-5.685-3.381-12.02-8.021-17.825C133.39,87.032,132.089,86.77,130.822,87.825z"/>
		<path fill="#104051" d="M106.481,87.876c-1.278-1.119-2.542-0.813-3.56,0.411c-4.895,5.885-8.378,12.367-8.471,20.264
			c-0.026,5.896,1.922,11.069,5.658,15.579c1.289,1.557,2.662,1.77,3.879,0.76c1.142-0.947,1.096-2.511-0.116-3.955
			c-4.249-5.062-5.464-10.812-3.863-17.181c1.168-4.651,3.663-8.593,6.647-12.27C107.653,90.256,107.727,88.969,106.481,87.876z"/>
	</g>
</g>
<g id="Layer_3" display="none">
	<g display="inline">
		<path fill="#FFFFFF" d="M119.83,172.744c1.822-3.094,4.276-5.292,7.977-5.99c-6.145-1.725-12.24-1.796-18.362,0.022
			c3.746,0.66,6.19,2.893,8.017,6.015C118.354,174.318,118.909,174.306,119.83,172.744z"/>
		<path fill="#FFFFFF" d="M118.604,183.724c-4.297,4.929-9.761,6.144-16.083,5.76c3.352,6.512,9.157,7.52,15.132,7.63
			c6.584,0.121,13.116-0.438,17.207-7.665C128.298,189.922,122.824,188.537,118.604,183.724z"/>
		<path fill="#FFFFFF" d="M91.197,136.125c2.03,0.052,3.797-1.665,3.803-3.694c0.006-2.013-1.735-3.693-3.827-3.694
			c-1.88-0.001-3.591,1.766-3.583,3.703C87.598,134.384,89.253,136.075,91.197,136.125z"/>
		<path fill="#FFFFFF" d="M71.568,83.863c-8.038-7.447-17.945-12.444-28.893-16.554c3.02,11.753,8.01,22.064,14.182,30.725
			C61.746,93.324,66.577,88.671,71.568,83.863z"/>
		<path fill="#FFFFFF" d="M96.104,187.19c-7.374-4.869-9.365-16-3.416-23.399c4.287-5.333,6.478-11.386,7.079-18.089
			c0.268-2.987,0.322-5.992-0.718-9.047c-3.776,4.33-7.513,5.456-11.428,3.591c-3.976-1.893-5.512-5.535-4.515-11.117
			c-4.346,0.854-7.979,2.668-11.049,5.589c-5.791,5.507-7.481,12.623-7.54,20.203c-0.082,10.443,2.804,20.184,7.494,29.475
			c4.58,9.073,7.756,18.629,9.126,28.737c0.347,2.564,0.609,5.141,0.928,7.855c5.088-5.141,14.806-22.299,15.82-28.656
			C98.146,190.705,97.339,188.005,96.104,187.19z"/>
		<path fill="#FFFFFF" d="M149.675,132.381c-0.037-1.957-1.771-3.689-3.644-3.642c-2.113,0.052-3.809,1.742-3.767,3.755
			c0.042,2.026,1.841,3.716,3.866,3.631C148.061,136.044,149.711,134.3,149.675,132.381z"/>
		<path fill="#FFFFFF" d="M172.512,151.055c-0.584-6.328-2.662-12.046-7.461-16.483c-3.069-2.839-6.63-4.697-10.893-5.384
			c1.018,5.484-0.539,9.17-4.521,11.062c-3.912,1.859-7.631,0.735-11.624-3.819c-0.243,1.886-0.561,3.341-0.597,4.804
			c-0.21,8.336,1.874,15.885,7.154,22.573c5.746,7.277,4.3,17.753-2.821,22.802c-1.984,1.407-2.946,4.556-2.101,6.899
			c3.389,9.385,8.11,18.046,14.155,25.984c0.383,0.502,0.851,0.938,1.444,1.585c0.262-2.595,0.423-4.882,0.729-7.15
			c1.497-11.067,5.196-21.406,10.132-31.389C171,172.643,173.536,162.177,172.512,151.055z"/>
		<path fill="#FFFFFF" d="M196.501,55.593c-6.979,6.336-15.372,8.641-24.104,9.926c-7.96,1.171-14.567,4.495-18.71,11.547
			c-1.979,3.371-4.69,5.561-8.246,6.432c-4.922,1.207-9.954,2.016-14.975,2.743c-3.059,0.443-6.186,0.411-9.394,0.599
			c0,0.89,0,1.629,0,2.368c0,10.2,0.021,20.399-0.035,30.599c-0.006,0.866-0.292,1.962-0.867,2.521
			c-0.483,0.471-1.896,0.707-2.33,0.352c-0.766-0.628-1.539-1.779-1.549-2.72c-0.106-10.334-0.066-20.67-0.067-31.006
			c0-0.734,0-1.469,0-2.391c-2.075-0.101-3.969-0.161-5.857-0.291c-6.514-0.447-13.012-1.046-19.241-3.175
			c-3.432-1.172-6.887-2.403-7.806-6.604c-0.067-0.307-0.36-0.569-0.561-0.843c-3.972-5.407-9.275-8.67-15.891-9.74
			c-9.37-1.516-18.552-3.49-26.137-10.324c0.147,1.512,0.307,2.693,0.368,3.88c0.083,1.595,0.833,2.321,2.386,2.961
			c5.822,2.399,11.653,4.837,17.25,7.711c6.125,3.145,11.682,7.2,16.352,12.345c1.631,1.796,1.54,3.098-0.23,4.456
			c-10.344,7.936-18.591,17.639-24.612,29.214c-4.572,8.79-8.324,17.933-9.023,27.888c-1.211,17.23,3.689,32.521,15.219,45.662
			c4.6,5.243,8.644,10.986,12.785,16.615c1.786,2.428,3.179,5.145,4.75,7.73c0.215-0.737,0.164-1.387,0.054-2.027
			c-1.616-9.436-4.927-18.269-9.107-26.864c-5.838-12.006-9.029-24.614-6.57-38.043c2.038-11.125,8.291-18.879,19.346-22.221
			c4.799-1.449,9.803-1.994,14.64-0.467c6.186,1.953,10.075,8.248,10.387,15.852c0.404,9.839-1.87,18.802-8.168,26.625
			c-3.045,3.783-3.357,8.143-1.064,12.419c2.247,4.191,6.183,5.489,10.681,5.309c4.705-0.188,8.464-2.668,9.585-6.046
			c-0.917-1.188-1.883-2.237-2.612-3.431c-1.168-1.913-2.601-3.106-4.98-3.354c-3.314-0.344-4.975-2.917-4.211-6.124
			c0.515-2.162,2.181-3.215,4.134-3.821c5.227-1.62,10.598-1.572,15.948-1c2.256,0.241,4.541,0.852,6.641,1.713
			c2.283,0.936,3.068,2.9,2.683,5.376c-0.331,2.125-1.562,3.585-3.7,3.742c-2.928,0.215-4.744,1.687-5.945,4.222
			c-0.253,0.533-0.678,1.083-1.17,1.385c-1.512,0.927-1.139,1.948-0.261,3.003c3.43,4.122,7.905,4.976,12.888,3.946
			c4.224-0.873,7.184-4.119,7.876-8.586c0.554-3.567-0.599-6.677-2.802-9.473c-6.797-8.626-8.777-18.497-7.262-29.166
			c0.932-6.545,5.809-12.321,11.326-13.016c9.963-1.254,18.898,1.054,25.879,8.777c5.229,5.785,7.16,12.861,7.467,20.416
			c0.46,11.373-2.617,21.946-7.319,32.219c-2.839,6.203-5.155,12.66-7.416,19.104c-1.052,3.001-1.415,6.246-2.09,9.38
			c0.165,0.049,0.329,0.098,0.495,0.147c1.201-2.021,2.231-4.167,3.631-6.04c5.242-7.009,10.517-13.997,15.939-20.867
			c11.647-14.757,15.953-31.454,11.98-49.725c-4.503-20.714-15.722-37.476-32.484-50.489c-1.651-1.282-1.847-2.559-0.471-4.152
			c1.021-1.179,2.135-2.29,3.298-3.33c8.222-7.356,17.783-12.482,28.117-16.041c3.649-1.256,5.363-3.05,5.166-6.782
			C196.49,56.386,196.501,56.145,196.501,55.593z M106.691,91.837c-2.975,3.664-5.46,7.592-6.625,12.228
			c-1.595,6.348-0.384,12.079,3.85,17.124c1.208,1.439,1.254,2.998,0.116,3.941c-1.213,1.006-2.582,0.794-3.866-0.757
			c-3.723-4.494-5.665-9.65-5.639-15.526c0.092-7.871,3.563-14.331,8.442-20.196c1.015-1.22,2.274-1.525,3.548-0.409
			C107.759,89.33,107.685,90.613,106.691,91.837z M136.932,124.573c-1.07,1.266-2.422,1.676-3.719,0.499
			c-1.264-1.147-1.051-2.497,0.028-3.778c5.567-6.613,5.907-13.897,2.403-21.461c-1.238-2.676-3.064-5.095-4.747-7.547
			c-1.228-1.79-1.364-3.058-0.12-4.096c1.262-1.052,2.559-0.792,3.959,0.961c4.623,5.786,7.969,12.101,7.994,17.766
			C142.735,114.853,140.751,120.055,136.932,124.573z"/>
		<path fill="#FFFFFF" d="M180.396,98.064c6.183-8.765,11.243-19.037,14.21-30.751c-10.9,4.049-20.785,9.043-28.867,16.471
			C170.67,88.589,175.533,93.327,180.396,98.064z"/>
		<path d="M199.098,24.85c-0.617-2.236-1.754-3.11-3.388-2.503c-1.823,0.677-1.646,2.115-1.373,3.725
			c0.913,5.405,1.581,10.854,2.56,16.246c0.803,4.426-1.383,7.435-4.343,10.111c-4.636,4.19-10.381,6.038-16.32,7.371
			c-2.776,0.623-5.595,1.05-8.383,1.624c-6.645,1.369-12.044,4.787-16.319,10.024c-0.549,0.673-1.09,1.354-1.666,2.068
			c-3.098-8.607-5.893-17.198-9.273-25.551c-3.918-9.678-8.238-19.2-12.622-28.679c-1.47-3.179-3.585-6.077-5.562-8.998
			c-1.883-2.782-4.256-5.089-7.448-6.393c-1.088,0-1.206-1.061-2.294-1.061c-6.03-1.728-6.687-3.015-11.917-4.583
			c-1.35-0.405-7.667-3.133-10.1-3.724C89.167-5.833,86.25-7,86.25-7s-2.083,1.333-0.75,2.75c0.42,0.396,1.725,2.186,2.217,2.447
			C91.105,0,95.25,7.5,98.406,9.484c0.938,0.59,3.406,5.379,4.344,4.766c0.143,1.383-1.327,2.117,0.114,4.043
			c0.749-0.67-0.616,2.761,0.356,1.891c-0.241,0.978-0.356,1.583-0.539,2.166c-2.046,6.541-3.992,13.117-6.187,19.608
			c-2.306,6.816-3.859,13.926-7.615,20.204c-0.29,0.485-0.489,1.212-0.357,1.732c0.786,3.109-1.013,5.628-1.541,7.975
			c-1.632-1.403-3.357-2.88-5.074-4.366c-4.798-4.152-10.53-5.971-16.688-6.892c-5.312-0.795-10.531-2.083-15.3-4.653
			c-1.955-1.054-3.844-2.341-5.496-3.821c-2.873-2.572-4.824-5.583-4.056-9.818c0.978-5.393,1.646-10.841,2.56-16.246
			c0.272-1.61,0.453-3.047-1.371-3.726c-1.633-0.608-2.906,0.24-3.364,2.505c-0.897,4.444-1.597,8.927-2.386,13.393
			c-0.116,0.658-0.271,1.309-0.409,1.963c0,4.352,0,8.704,0,13.056c0.488,3.606,0.826,7.24,1.491,10.813
			c2.533,13.631,8.284,25.894,16.219,37.169c0.977,1.388,0.949,2.281,0.036,3.684c-6.714,10.304-12.107,21.241-14.056,33.495
			c-3.028,19.037,0.982,36.459,13.299,51.519c6.713,8.208,13.676,16.214,18.605,25.667c2.05,3.931,3.49,8.18,5.207,12.284
			c2.312,0,4.625,0,6.937,0c3.2-4.373,6.717-8.554,9.521-13.168c3.434-5.652,6.271-11.666,9.257-17.314
			c11.077,6.508,22.36,6.486,33.294,0.092c3.66,6.584,7.267,13.479,11.279,20.129c2.193,3.634,5.072,6.854,7.643,10.261
			c2.312,0,4.624,0,6.937,0c2.256-5.047,3.963-10.441,6.895-15.06c4.421-6.965,9.305-13.725,14.691-19.969
			c10.408-12.068,15.834-25.865,16.488-41.71c0.473-11.478-2.501-22.158-7.335-32.37c-2.284-4.826-5.083-9.418-7.817-14.017
			c-0.774-1.303-0.852-2.092,0.047-3.36c8.009-11.313,13.787-23.634,16.342-37.332c0.666-3.573,1.002-7.208,1.49-10.813
			c0-4.352,0-8.704,0-13.056c-0.551-3.607-1.062-7.22-1.671-10.817C199.938,27.859,199.513,26.351,199.098,24.85z M42.675,67.309
			c10.948,4.11,20.855,9.107,28.893,16.554c-4.992,4.808-9.822,9.461-14.711,14.171C50.685,89.373,45.695,79.062,42.675,67.309z
			 M97.886,192.332c-1.014,6.357-10.731,23.515-15.82,28.656c-0.319-2.714-0.581-5.291-0.928-7.855
			c-1.37-10.108-4.546-19.664-9.126-28.737c-4.69-9.291-7.576-19.032-7.494-29.475c0.059-7.58,1.749-14.696,7.54-20.203
			c3.07-2.921,6.703-4.736,11.049-5.589c-0.998,5.582,0.539,9.224,4.515,11.117c3.916,1.865,7.652,0.739,11.428-3.591
			c1.041,3.055,0.986,6.06,0.718,9.047c-0.601,6.703-2.792,12.756-7.079,18.089c-5.95,7.399-3.958,18.53,3.416,23.399
			C97.339,188.005,98.146,190.705,97.886,192.332z M87.591,132.439c-0.008-1.938,1.703-3.705,3.583-3.703
			c2.092,0.001,3.833,1.682,3.827,3.694c-0.006,2.029-1.773,3.746-3.803,3.694C89.253,136.075,87.598,134.384,87.591,132.439z
			 M117.652,197.115c-5.975-0.11-11.781-1.118-15.132-7.63c6.322,0.383,11.787-0.832,16.083-5.76
			c4.221,4.812,9.694,6.198,16.256,5.726C130.769,196.677,124.236,197.236,117.652,197.115z M117.461,172.791
			c-1.826-3.122-4.271-5.354-8.017-6.015c6.122-1.818,12.218-1.748,18.362-0.022c-3.7,0.698-6.154,2.896-7.977,5.99
			C118.909,174.306,118.354,174.318,117.461,172.791z M155.248,221.078c-0.594-0.647-1.062-1.083-1.444-1.585
			c-6.045-7.938-10.767-16.599-14.155-25.984c-0.846-2.343,0.116-5.493,2.101-6.899c7.121-5.049,8.567-15.525,2.821-22.802
			c-5.28-6.688-7.364-14.237-7.154-22.573c0.036-1.462,0.354-2.918,0.597-4.804c3.993,4.555,7.712,5.678,11.624,3.819
			c3.982-1.893,5.539-5.578,4.521-11.062c4.263,0.688,7.823,2.545,10.893,5.384c4.799,4.437,6.877,10.155,7.461,16.483
			c1.024,11.123-1.512,21.588-6.402,31.483c-4.936,9.983-8.635,20.322-10.132,31.389
			C155.671,216.196,155.51,218.483,155.248,221.078z M142.265,132.494c-0.042-2.013,1.653-3.703,3.767-3.755
			c1.873-0.047,3.606,1.686,3.644,3.642c0.036,1.919-1.614,3.663-3.544,3.744C144.105,136.209,142.307,134.52,142.265,132.494z
			 M180.396,98.064c-4.862-4.738-9.726-9.476-14.657-14.28c8.082-7.428,17.967-12.422,28.867-16.471
			C191.639,79.028,186.578,89.3,180.396,98.064z M191.337,63.407c-10.334,3.559-19.896,8.684-28.117,16.041
			c-1.163,1.04-2.277,2.15-3.298,3.33c-1.376,1.593-1.181,2.87,0.471,4.152c16.763,13.013,27.981,29.774,32.484,50.489
			c3.973,18.271-0.333,34.968-11.98,49.725c-5.423,6.87-10.697,13.857-15.939,20.867c-1.399,1.872-2.43,4.019-3.631,6.04
			c-0.166-0.049-0.33-0.098-0.495-0.147c0.675-3.134,1.038-6.379,2.09-9.38c2.261-6.445,4.577-12.902,7.416-19.104
			c4.702-10.272,7.779-20.846,7.319-32.219c-0.307-7.555-2.238-14.631-7.467-20.416c-6.98-7.723-15.916-10.032-25.879-8.777
			c-5.518,0.695-10.395,6.471-11.326,13.016c-1.516,10.668,0.465,20.539,7.262,29.166c2.203,2.796,3.355,5.906,2.802,9.473
			c-0.692,4.468-3.652,7.714-7.876,8.586c-4.982,1.029-9.458,0.176-12.888-3.946c-0.878-1.055-1.251-2.076,0.261-3.003
			c0.492-0.303,0.917-0.853,1.17-1.385c1.201-2.536,3.018-4.007,5.945-4.222c2.138-0.157,3.369-1.618,3.7-3.742
			c0.386-2.476-0.399-4.44-2.683-5.376c-2.1-0.862-4.385-1.473-6.641-1.713c-5.35-0.571-10.721-0.619-15.948,1
			c-1.953,0.605-3.619,1.659-4.134,3.821c-0.764,3.207,0.897,5.779,4.211,6.124c2.379,0.248,3.812,1.441,4.98,3.354
			c0.729,1.193,1.695,2.243,2.612,3.431c-1.121,3.378-4.88,5.858-9.585,6.046c-4.498,0.18-8.434-1.118-10.681-5.309
			c-2.292-4.276-1.981-8.637,1.064-12.419c6.298-7.823,8.572-16.786,8.168-26.625c-0.312-7.604-4.202-13.899-10.387-15.852
			c-4.837-1.527-9.841-0.982-14.64,0.467c-11.055,3.341-17.309,11.095-19.346,22.221c-2.459,13.429,0.731,26.037,6.57,38.043
			c4.18,8.595,7.492,17.428,9.107,26.864c0.11,0.641,0.161,1.291-0.054,2.027c-1.572-2.586-2.964-5.303-4.75-7.73
			c-4.142-5.629-8.185-11.372-12.785-16.615c-11.53-13.141-16.43-28.432-15.219-45.662c0.699-9.955,4.451-19.098,9.023-27.888
			c6.021-11.575,14.268-21.279,24.612-29.214c1.77-1.358,1.861-2.66,0.23-4.456c-4.67-5.145-10.228-9.2-16.352-12.345
			c-5.596-2.874-11.427-5.312-17.25-7.711c-1.553-0.64-2.303-1.367-2.386-2.961c-0.061-1.187-0.221-2.369-0.368-3.88
			c7.585,6.834,16.767,8.808,26.137,10.324c6.616,1.07,11.919,4.333,15.891,9.74c0.201,0.274,0.494,0.536,0.561,0.843
			c0.918,4.201,4.374,5.432,7.806,6.604c6.229,2.128,12.728,2.728,19.241,3.175c1.888,0.13,3.782,0.19,5.857,0.291
			c0,0.922,0,1.657,0,2.391c0.001,10.335-0.039,20.672,0.067,31.006c0.01,0.94,0.783,2.091,1.549,2.72
			c0.434,0.355,1.847,0.119,2.33-0.352c0.575-0.559,0.861-1.655,0.867-2.521c0.057-10.199,0.035-20.399,0.035-30.599
			c0-0.739,0-1.478,0-2.368c3.208-0.188,6.335-0.156,9.394-0.599c5.021-0.727,10.053-1.536,14.975-2.743
			c3.556-0.872,6.267-3.061,8.246-6.432c4.143-7.052,10.75-10.375,18.71-11.547c8.732-1.285,17.126-3.589,24.104-9.926
			c0,0.551-0.011,0.792,0.002,1.032C196.7,60.357,194.986,62.151,191.337,63.407z"/>
		<path d="M130.777,88.19c-1.244,1.038-1.107,2.306,0.12,4.096c1.683,2.452,3.509,4.871,4.747,7.547
			c3.504,7.564,3.164,14.848-2.403,21.461c-1.079,1.281-1.292,2.631-0.028,3.778c1.297,1.177,2.648,0.767,3.719-0.499
			c3.819-4.518,5.804-9.72,5.799-17.656c-0.025-5.666-3.371-11.98-7.994-17.766C133.336,87.398,132.039,87.138,130.777,88.19z"/>
		<path d="M106.517,88.241c-1.273-1.116-2.533-0.811-3.548,0.409c-4.878,5.865-8.35,12.325-8.442,20.196
			c-0.026,5.876,1.916,11.032,5.639,15.526c1.285,1.551,2.653,1.763,3.866,0.757c1.138-0.943,1.093-2.502-0.116-3.941
			c-4.234-5.045-5.445-10.776-3.85-17.124c1.165-4.636,3.65-8.564,6.625-12.228C107.685,90.613,107.759,89.33,106.517,88.241z"/>
	</g>
</g>
<g id="Layer_17">
	<circle fill="#3EC173" stroke="#231F20" stroke-miterlimit="10" cx="91" cy="132.667" r="5"/>
	<circle fill="#3EC173" stroke="#231F20" stroke-miterlimit="10" cx="145.75" cy="132.417" r="5"/>
</g>
<g id="Layer_4">
	<path fill="none" stroke="#000000" stroke-miterlimit="10" d="M150,162.5c0-5.527,35-15.5,66.5-1"/>
	<path fill="none" stroke="#000000" stroke-miterlimit="10" d="M149.5,155.5c0-5.527,46.5-24.5,72-5.5"/>
	<path fill="none" stroke="#000000" stroke-miterlimit="10" d="M86,166.5c0-5.527-35-15.5-66.5-1"/>
	<path fill="none" stroke="#231F20" stroke-miterlimit="10" d="M86.5,159.5c0-5.527-46.5-24.5-72-5.5"/>
	<ellipse fill="#231F20" stroke="#231F20" stroke-miterlimit="10" cx="91.5" cy="132" rx="2" ry="3"/>
	<ellipse fill="#231F20" stroke="#231F20" stroke-miterlimit="10" cx="145.75" cy="131.917" rx="2" ry="3"/>
	<path fill="none" stroke="#FFFFFF" stroke-miterlimit="10" d="M142.354,49.776"/>
	<path fill="#7C7C7C" stroke="#104051" stroke-width="5" stroke-miterlimit="10" d="M13.606,312.41
		c0-6.041,1.433-11.616,3.847-16.088c1.734-3.213-2.442-20.699-2.442-20.699s14.502,0.121,17.596,0.121
		c3.591,0,4.334,1.333,6.812,5.827c0.817,1.482,2.386,8.485,2.386,8.485l3.959-9.729c0,0,3.639,19.432,4.237,21.339
		c1.032,3.288,1.605,6.921,1.605,10.743c0,14.729-8.507,26.668-19,26.668S13.606,327.139,13.606,312.41z"/>
</g>
<g id="Layer_27" display="none">
	<polygon display="inline" fill="none" stroke="#FFCC00" stroke-miterlimit="10" points="108.542,46.042 104.791,43.943 
		100.936,45.844 101.772,41.628 98.774,38.549 103.042,38.042 105.043,34.239 106.845,38.141 111.08,38.87 107.925,41.788 	"/>
	<polyline display="inline" fill="none" stroke="#FFCC00" stroke-miterlimit="10" points="144.62,58.657 145.532,67.376 
		137.557,62.491 129.009,66.292 131.191,57.195 124.936,50.242 134.261,49.506 138.375,42.375 	"/>
</g>
<g id="Layer_25">
</g>
<g id="Layer_10">
	
		<rect x="45.273" y="278.077" transform="matrix(-0.9115 -0.4113 0.4113 -0.9115 -48.2091 658.7798)" fill="#FFCC00" stroke="#FFCC00" stroke-miterlimit="10" width="3" height="113"/>
</g>
<g id="Layer_5">
	<path fill="#231F20" stroke="#231F20" stroke-width="2" stroke-miterlimit="10" d="M41.826,345.354c0,0-4.051-0.102-6.617-2.66
		c-2.567-2.561-3.768-5.52-2.68-6.611c1.088-1.09,4.051,0.102,6.617,2.662C41.713,341.303,41.826,345.354,41.826,345.354z"/>
	<path fill="#231F20" stroke="#231F20" stroke-width="2" stroke-miterlimit="10" d="M50.122,338.414c0,0-4.051-0.1-6.618-2.66
		c-2.566-2.561-3.766-5.52-2.678-6.609c1.087-1.092,4.051,0.1,6.617,2.66C50.009,334.363,50.122,338.414,50.122,338.414z"/>
	<path fill="#231F20" stroke="#231F20" stroke-width="2" stroke-miterlimit="10" d="M55.122,328.414c0,0-4.051-0.102-6.617-2.66
		c-2.566-2.561-3.766-5.52-2.679-6.609c1.088-1.092,4.051,0.1,6.617,2.66C55.01,324.363,55.122,328.414,55.122,328.414z"/>
	<path fill="#7C7C7C" stroke="#104051" stroke-width="5" stroke-miterlimit="10" d="M248.362,211.098
		c-0.599,4.202-5.958,34.15-5.958,34.15l-3.235-14.69l-6.943,22.332c0,0-7.157-20.11-11.854-20.779
		c-13.532-1.926-22.94-14.458-21.014-27.989c1.926-13.532,14.457-22.94,27.989-21.014
		C240.88,185.035,250.288,197.566,248.362,211.098z"/>
	<path fill="#231F20" stroke="#231F20" stroke-width="2" stroke-miterlimit="10" d="M253.604,183.593c0,0,0.406,4.032-1.812,6.898
		c-2.219,2.868-5.004,4.429-6.222,3.487c-1.219-0.942-0.407-4.031,1.811-6.898C249.601,184.212,253.604,183.593,253.604,183.593z"/>
	<path fill="#231F20" stroke="#231F20" stroke-width="2" stroke-miterlimit="10" d="M245.681,176.232c0,0,0.407,4.032-1.812,6.9
		c-2.217,2.867-5.004,4.427-6.223,3.484c-1.217-0.942-0.407-4.031,1.812-6.898C241.676,176.851,245.681,176.232,245.681,176.232z"/>
	<path fill="#231F20" stroke="#231F20" stroke-width="2" stroke-miterlimit="10" d="M235.133,172.524c0,0,0.407,4.032-1.812,6.898
		c-2.218,2.867-5.005,4.427-6.222,3.485c-1.219-0.942-0.408-4.031,1.811-6.898C231.127,173.142,235.133,172.524,235.133,172.524z"/>
	<path fill="#231F20" stroke="#231F20" stroke-width="2" stroke-miterlimit="10" d="M204.298,186.322c0,0,3.381,2.233,4.2,5.765
		c0.82,3.531,0.268,6.677-1.232,7.024c-1.5,0.349-3.382-2.232-4.2-5.764C202.245,189.817,204.298,186.322,204.298,186.322z"/>
</g>
<g id="Layer_24">
</g>
<g id="Layer_14">
</g>
<g id="Layer_11">
</g>
<g id="Layer_23">
</g>
<g id="Layer_15">
</g>
</svg>
